MozillaHeadline-CondensedBold.ufo
<glyph name="numbersign" format="1">
  <advance width="465"/>
  <unicode hex="0023"/>
  <outline>
    <contour>
      <point x="47" y="0" type="line"/>
      <point x="148" y="0" type="line"/>
      <point x="235" y="690" type="line"/>
      <point x="135" y="690" type="line"/>
    </contour>
    <contour>
      <point x="229" y="0" type="line"/>
      <point x="330" y="0" type="line"/>
      <point x="418" y="690" type="line"/>
      <point x="317" y="690" type="line"/>
    </contour>
    <contour>
      <point x="47" y="413" type="line"/>
      <point x="444" y="413" type="line"/>
      <point x="444" y="510" type="line"/>
      <point x="47" y="510" type="line"/>
    </contour>
    <contour>
      <point x="21" y="180" type="line"/>
      <point x="418" y="180" type="line"/>
      <point x="418" y="277" type="line"/>
      <point x="21" y="277" type="line"/>
    </contour>
  </outline>
</glyph>
<glyph name="percent" format="1">
  <advance width="607"/>
  <unicode hex="0025"/>
  <outline>
    <contour>
      <point x="38" y="0" type="line"/>
      <point x="145" y="0" type="line"/>
      <point x="302" y="322" type="line"/>
      <point x="195" y="322" type="line"/>
    </contour>
    <contour>
      <point x="306" y="368" type="line"/>
      <point x="413" y="368" type="line"/>
      <point x="570" y="690" type="line"/>
      <point x="462" y="690" type="line"/>
    </contour>
    <contour>
      <point x="170" y="360" type="curve" smooth="yes"/>
      <point x="276" y="360"/>
      <point x="317" y="436"/>
      <point x="317" y="530" type="curve" smooth="yes"/>
      <point x="317" y="624"/>
      <point x="276" y="700"/>
      <point x="170" y="700" type="curve" smooth="yes"/>
      <point x="63" y="700"/>
      <point x="22" y="624"/>
      <point x="22" y="530" type="curve" smooth="yes"/>
      <point x="22" y="436"/>
      <point x="63" y="360"/>
    </contour>
    <contour>
      <point x="170" y="434" type="curve" smooth="yes"/>
      <point x="136" y="434"/>
      <point x="121" y="454"/>
      <point x="121" y="488" type="curve" smooth="yes"/>
      <point x="121" y="572" type="line" smooth="yes"/>
      <point x="121" y="606"/>
      <point x="136" y="626"/>
      <point x="170" y="626" type="curve" smooth="yes"/>
      <point x="203" y="626"/>
      <point x="218" y="606"/>
      <point x="218" y="572" type="curve" smooth="yes"/>
      <point x="218" y="488" type="line" smooth="yes"/>
      <point x="218" y="454"/>
      <point x="203" y="434"/>
    </contour>
    <contour>
      <point x="438" y="-10" type="curve" smooth="yes"/>
      <point x="544" y="-10"/>
      <point x="586" y="66"/>
      <point x="586" y="160" type="curve" smooth="yes"/>
      <point x="586" y="254"/>
      <point x="544" y="330"/>
      <point x="438" y="330" type="curve" smooth="yes"/>
      <point x="332" y="330"/>
      <point x="290" y="254"/>
      <point x="290" y="160" type="curve" smooth="yes"/>
      <point x="290" y="66"/>
      <point x="332" y="-10"/>
    </contour>
    <contour>
      <point x="438" y="64" type="curve" smooth="yes"/>
      <point x="404" y="64"/>
      <point x="389" y="84"/>
      <point x="389" y="118" type="curve" smooth="yes"/>
      <point x="389" y="202" type="line" smooth="yes"/>
      <point x="389" y="236"/>
      <point x="404" y="256"/>
      <point x="438" y="256" type="curve" smooth="yes"/>
      <point x="471" y="256"/>
      <point x="486" y="236"/>
      <point x="486" y="202" type="curve" smooth="yes"/>
      <point x="486" y="118" type="line" smooth="yes"/>
      <point x="486" y="84"/>
      <point x="471" y="64"/>
    </contour>
  </outline>
</glyph>
<glyph name="ampersand" format="1">
  <advance width="505"/>
  <unicode hex="0026"/>
  <outline>
    <contour>
      <point x="109" y="436" type="curve" smooth="yes"/>
      <point x="320" y="0" type="line"/>
      <point x="479" y="0" type="line"/>
      <point x="479" y="98" type="line"/>
      <point x="402" y="98" type="line"/>
      <point x="210" y="490" type="line" smooth="yes"/>
      <point x="197" y="516"/>
      <point x="191" y="536"/>
      <point x="191" y="552" type="curve" smooth="yes"/>
      <point x="191" y="579"/>
      <point x="206" y="592"/>
      <point x="239" y="592" type="curve" smooth="yes"/>
      <point x="300" y="592" type="line"/>
      <point x="300" y="483" type="line"/>
      <point x="403" y="483" type="line"/>
      <point x="403" y="690" type="line"/>
      <point x="231" y="690" type="line" smooth="yes"/>
      <point x="128" y="690"/>
      <point x="73" y="644"/>
      <point x="73" y="558" type="curve" smooth="yes"/>
      <point x="73" y="521"/>
      <point x="84" y="484"/>
    </contour>
    <contour>
      <point x="155" y="-10" type="curve" smooth="yes"/>
      <point x="216" y="-10"/>
      <point x="253" y="21"/>
      <point x="259" y="74" type="curve"/>
      <point x="297" y="74" type="line"/>
      <point x="273" y="109" type="line"/>
      <point x="248" y="97"/>
      <point x="227" y="92"/>
      <point x="205" y="92" type="curve" smooth="yes"/>
      <point x="163" y="92"/>
      <point x="146" y="113"/>
      <point x="146" y="163" type="curve" smooth="yes"/>
      <point x="146" y="235" type="line" smooth="yes"/>
      <point x="146" y="274"/>
      <point x="163" y="292"/>
      <point x="200" y="297" type="curve"/>
      <point x="173" y="380" type="line"/>
      <point x="66" y="363"/>
      <point x="21" y="308"/>
      <point x="21" y="188" type="curve" smooth="yes"/>
      <point x="21" y="57"/>
      <point x="67" y="-10"/>
    </contour>
    <contour>
      <point x="379" y="141" type="line"/>
      <point x="445" y="165"/>
      <point x="469" y="201"/>
      <point x="469" y="269" type="curve" smooth="yes"/>
      <point x="469" y="392" type="line"/>
      <point x="366" y="392" type="line"/>
      <point x="366" y="223" type="line"/>
      <point x="324" y="223" type="line"/>
    </contour>
  </outline>
</glyph>
<glyph name="parenleft" format="1">
  <advance width="233"/>
  <unicode hex="0028"/>
  <outline>
    <contour>
      <point x="131" y="-92" type="curve"/>
      <point x="231" y="-92" type="line"/>
      <point x="165" y="36"/>
      <point x="140" y="141"/>
      <point x="140" y="282" type="curve" smooth="yes"/>
      <point x="140" y="408" type="line" smooth="yes"/>
      <point x="140" y="549"/>
      <point x="165" y="654"/>
      <point x="231" y="782" type="curve"/>
      <point x="131" y="782" type="line"/>
      <point x="60" y="679"/>
      <point x="27" y="536"/>
      <point x="27" y="345" type="curve" smooth="yes"/>
      <point x="27" y="154"/>
      <point x="60" y="11"/>
    </contour>
  </outline>
</glyph>
<glyph name="comma" format="1">
  <advance width="191"/>
  <unicode hex="002C"/>
  <outline>
    <contour>
      <point x="32" y="-93" type="line"/>
      <point x="93" y="-93" type="line"/>
      <point x="159" y="0" type="line"/>
      <point x="159" y="125" type="line"/>
      <point x="32" y="125" type="line"/>
      <point x="32" y="0" type="line"/>
      <point x="94" y="0" type="line"/>
    </contour>
  </outline>
</glyph>
<glyph name="one" format="1">
  <advance width="334"/>
  <unicode hex="0031"/>
  <outline>
    <contour>
      <point x="32" y="0" type="line"/>
      <point x="320" y="0" type="line"/>
      <point x="320" y="98" type="line"/>
      <point x="237" y="98" type="line"/>
      <point x="237" y="690" type="line"/>
      <point x="160" y="690" type="line"/>
      <point x="33" y="624" type="line"/>
      <point x="33" y="524" type="line"/>
      <point x="115" y="566" type="line"/>
      <point x="115" y="98" type="line"/>
      <point x="32" y="98" type="line"/>
    </contour>
  </outline>
</glyph>
<glyph name="two" format="1">
  <advance width="438"/>
  <unicode hex="0032"/>
  <outline>
    <contour>
      <point x="37" y="138" type="curve" smooth="yes"/>
      <point x="37" y="0" type="line"/>
      <point x="396" y="0" type="line"/>
      <point x="396" y="211" type="line"/>
      <point x="293" y="211" type="line"/>
      <point x="293" y="102" type="line"/>
      <point x="94" y="102" type="line"/>
      <point x="156" y="46" type="line"/>
      <point x="156" y="159" type="line" smooth="yes"/>
      <point x="156" y="215"/>
      <point x="171" y="240"/>
      <point x="209" y="259" type="curve" smooth="yes"/>
      <point x="288" y="301" type="line" smooth="yes"/>
      <point x="370" y="344"/>
      <point x="404" y="400"/>
      <point x="404" y="498" type="curve" smooth="yes"/>
      <point x="404" y="515" type="line" smooth="yes"/>
      <point x="404" y="639"/>
      <point x="344" y="700"/>
      <point x="221" y="700" type="curve" smooth="yes"/>
      <point x="91" y="700"/>
      <point x="40" y="632"/>
      <point x="35" y="448" type="curve"/>
      <point x="155" y="448" type="line"/>
      <point x="155" y="520" type="line" smooth="yes"/>
      <point x="155" y="571"/>
      <point x="176" y="594"/>
      <point x="221" y="594" type="curve" smooth="yes"/>
      <point x="261" y="594"/>
      <point x="284" y="575"/>
      <point x="284" y="534" type="curve" smooth="yes"/>
      <point x="284" y="475" type="line" smooth="yes"/>
      <point x="284" y="440"/>
      <point x="269" y="417"/>
      <point x="232" y="398" type="curve" smooth="yes"/>
      <point x="153" y="357" type="line" smooth="yes"/>
      <point x="70" y="313"/>
      <point x="37" y="255"/>
    </contour>
  </outline>
</glyph>
<glyph name="three" format="1">
  <advance width="441"/>
  <unicode hex="0033"/>
  <outline>
    <contour>
      <point x="217" y="-10" type="curve" smooth="yes"/>
      <point x="342" y="-10"/>
      <point x="406" y="53"/>
      <point x="406" y="193" type="curve" smooth="yes"/>
      <point x="406" y="290"/>
      <point x="368" y="338"/>
      <point x="296" y="340" type="curve"/>
      <point x="296" y="364" type="line"/>
      <point x="366" y="366"/>
      <point x="403" y="411"/>
      <point x="403" y="504" type="curve" smooth="yes"/>
      <point x="403" y="639"/>
      <point x="340" y="700"/>
      <point x="217" y="700" type="curve" smooth="yes"/>
      <point x="86" y="700"/>
      <point x="35" y="632"/>
      <point x="30" y="448" type="curve"/>
      <point x="151" y="448" type="line"/>
      <point x="151" y="521" type="line" smooth="yes"/>
      <point x="151" y="571"/>
      <point x="173" y="594"/>
      <point x="217" y="594" type="curve" smooth="yes"/>
      <point x="258" y="594"/>
      <point x="280" y="575"/>
      <point x="280" y="535" type="curve" smooth="yes"/>
      <point x="280" y="457" type="line" smooth="yes"/>
      <point x="280" y="417"/>
      <point x="263" y="397"/>
      <point x="226" y="397" type="curve" smooth="yes"/>
      <point x="150" y="397" type="line"/>
      <point x="150" y="307" type="line"/>
      <point x="225" y="307" type="line" smooth="yes"/>
      <point x="263" y="307"/>
      <point x="281" y="287"/>
      <point x="281" y="246" type="curve" smooth="yes"/>
      <point x="281" y="157" type="line" smooth="yes"/>
      <point x="281" y="116"/>
      <point x="258" y="96"/>
      <point x="217" y="96" type="curve" smooth="yes"/>
      <point x="172" y="96"/>
      <point x="150" y="119"/>
      <point x="150" y="169" type="curve" smooth="yes"/>
      <point x="150" y="242" type="line"/>
      <point x="29" y="242" type="line"/>
      <point x="34" y="58"/>
      <point x="85" y="-10"/>
    </contour>
  </outline>
</glyph>
<glyph name="four" format="1">
  <advance width="424"/>
  <unicode hex="0034"/>
  <outline>
    <contour>
      <point x="20" y="157" type="line"/>
      <point x="410" y="157" type="line"/>
      <point x="410" y="252" type="line"/>
      <point x="138" y="252" type="line"/>
      <point x="288" y="690" type="line"/>
      <point x="169" y="690" type="line"/>
      <point x="20" y="252" type="line"/>
    </contour>
    <contour>
      <point x="232" y="0" type="line"/>
      <point x="353" y="0" type="line"/>
      <point x="353" y="422" type="line"/>
      <point x="277" y="422" type="line"/>
      <point x="232" y="323" type="line"/>
    </contour>
  </outline>
</glyph>
<glyph name="seven" format="1">
  <advance width="390"/>
  <unicode hex="0037"/>
  <outline>
    <contour>
      <point x="62" y="0" type="line"/>
      <point x="185" y="0" type="line"/>
      <point x="374" y="588" type="line"/>
      <point x="374" y="690" type="line"/>
      <point x="22" y="690" type="line"/>
      <point x="22" y="483" type="line"/>
      <point x="125" y="483" type="line"/>
      <point x="125" y="588" type="line"/>
      <point x="251" y="588" type="line"/>
    </contour>
  </outline>
</glyph>
<glyph name="eight" format="1">
  <advance width="454"/>
  <unicode hex="0038"/>
  <outline>
    <contour>
      <point x="226" y="-10" type="curve" smooth="yes"/>
      <point x="353" y="-10"/>
      <point x="418" y="53"/>
      <point x="418" y="193" type="curve" smooth="yes"/>
      <point x="418" y="288"/>
      <point x="387" y="331"/>
      <point x="319" y="340" type="curve"/>
      <point x="319" y="364" type="line"/>
      <point x="384" y="373"/>
      <point x="414" y="413"/>
      <point x="414" y="504" type="curve" smooth="yes"/>
      <point x="414" y="639"/>
      <point x="351" y="700"/>
      <point x="226" y="700" type="curve" smooth="yes"/>
      <point x="102" y="700"/>
      <point x="39" y="639"/>
      <point x="39" y="504" type="curve" smooth="yes"/>
      <point x="39" y="413"/>
      <point x="68" y="373"/>
      <point x="136" y="364" type="curve"/>
      <point x="136" y="340" type="line"/>
      <point x="67" y="332"/>
      <point x="35" y="288"/>
      <point x="35" y="193" type="curve" smooth="yes"/>
      <point x="35" y="53"/>
      <point x="99" y="-10"/>
    </contour>
    <contour>
      <point x="226" y="96" type="curve" smooth="yes"/>
      <point x="182" y="96"/>
      <point x="160" y="116"/>
      <point x="160" y="158" type="curve" smooth="yes"/>
      <point x="160" y="246" type="line" smooth="yes"/>
      <point x="160" y="288"/>
      <point x="182" y="308"/>
      <point x="226" y="308" type="curve" smooth="yes"/>
      <point x="271" y="308"/>
      <point x="293" y="288"/>
      <point x="293" y="246" type="curve" smooth="yes"/>
      <point x="293" y="158" type="line" smooth="yes"/>
      <point x="293" y="116"/>
      <point x="271" y="96"/>
    </contour>
    <contour>
      <point x="226" y="396" type="curve" smooth="yes"/>
      <point x="183" y="396"/>
      <point x="162" y="415"/>
      <point x="162" y="455" type="curve" smooth="yes"/>
      <point x="162" y="535" type="line" smooth="yes"/>
      <point x="162" y="575"/>
      <point x="183" y="594"/>
      <point x="226" y="594" type="curve" smooth="yes"/>
      <point x="269" y="594"/>
      <point x="291" y="575"/>
      <point x="291" y="535" type="curve" smooth="yes"/>
      <point x="291" y="455" type="line" smooth="yes"/>
      <point x="291" y="415"/>
      <point x="270" y="396"/>
    </contour>
  </outline>
</glyph>
<glyph name="at" format="1">
  <advance width="669"/>
  <unicode hex="0040"/>
  <outline>
    <contour>
      <point x="334" y="-78" type="curve" smooth="yes"/>
      <point x="540" y="-78" type="line"/>
      <point x="540" y="7" type="line"/>
      <point x="334" y="7" type="line" smooth="yes"/>
      <point x="199" y="7"/>
      <point x="126" y="82"/>
      <point x="126" y="224" type="curve" smooth="yes"/>
      <point x="126" y="384" type="line" smooth="yes"/>
      <point x="126" y="525"/>
      <point x="199" y="600"/>
      <point x="334" y="600" type="curve" smooth="yes"/>
      <point x="470" y="600"/>
      <point x="542" y="525"/>
      <point x="542" y="384" type="curve" smooth="yes"/>
      <point x="542" y="216" type="line" smooth="yes"/>
      <point x="542" y="173"/>
      <point x="529" y="150"/>
      <point x="502" y="150" type="curve" smooth="yes"/>
      <point x="487" y="150"/>
      <point x="480" y="158"/>
      <point x="480" y="177" type="curve" smooth="yes"/>
      <point x="480" y="387" type="line" smooth="yes"/>
      <point x="480" y="480"/>
      <point x="431" y="529"/>
      <point x="336" y="529" type="curve" smooth="yes"/>
      <point x="244" y="529"/>
      <point x="198" y="485"/>
      <point x="188" y="375" type="curve"/>
      <point x="292" y="375" type="line"/>
      <point x="292" y="396" type="line" smooth="yes"/>
      <point x="292" y="422"/>
      <point x="304" y="439"/>
      <point x="334" y="439" type="curve" smooth="yes"/>
      <point x="363" y="439"/>
      <point x="375" y="423"/>
      <point x="375" y="387" type="curve" smooth="yes"/>
      <point x="375" y="297" type="line"/>
      <point x="375" y="280" type="line"/>
      <point x="375" y="198" type="line" smooth="yes"/>
      <point x="375" y="166"/>
      <point x="361" y="151"/>
      <point x="330" y="151" type="curve" smooth="yes"/>
      <point x="303" y="151"/>
      <point x="289" y="164"/>
      <point x="289" y="191" type="curve" smooth="yes"/>
      <point x="289" y="214" type="line" smooth="yes"/>
      <point x="289" y="240"/>
      <point x="300" y="254"/>
      <point x="331" y="259" type="curve" smooth="yes"/>
      <point x="375" y="265" type="line"/>
      <point x="375" y="340" type="line"/>
      <point x="306" y="330" type="line" smooth="yes"/>
      <point x="221" y="318"/>
      <point x="181" y="275"/>
      <point x="181" y="186" type="curve" smooth="yes"/>
      <point x="181" y="110"/>
      <point x="219" y="65"/>
      <point x="282" y="65" type="curve" smooth="yes"/>
      <point x="337" y="65"/>
      <point x="366" y="96"/>
      <point x="371" y="154" type="curve"/>
      <point x="392" y="154" type="line"/>
      <point x="395" y="99"/>
      <point x="436" y="65"/>
      <point x="500" y="65" type="curve" smooth="yes"/>
      <point x="596" y="65"/>
      <point x="643" y="141"/>
      <point x="643" y="304" type="curve" smooth="yes"/>
      <point x="643" y="560"/>
      <point x="539" y="686"/>
      <point x="334" y="686" type="curve" smooth="yes"/>
      <point x="130" y="686"/>
      <point x="26" y="560"/>
      <point x="26" y="304" type="curve" smooth="yes"/>
      <point x="26" y="48"/>
      <point x="130" y="-78"/>
    </contour>
  </outline>
</glyph>
<glyph name="A" format="1">
  <advance width="438"/>
  <unicode hex="0041"/>
  <outline>
    <contour>
      <point x="19" y="0" type="line"/>
      <point x="138" y="0" type="line"/>
      <point x="207" y="577" type="line"/>
      <point x="231" y="577" type="line"/>
      <point x="300" y="0" type="line"/>
      <point x="424" y="0" type="line"/>
      <point x="331" y="690" type="line"/>
      <point x="112" y="690" type="line"/>
    </contour>
    <contour>
      <point x="92" y="158" type="line"/>
      <point x="345" y="158" type="line"/>
      <point x="344" y="250" type="line"/>
      <point x="93" y="250" type="line"/>
    </contour>
    <contour>
      <point x="58" y="592" type="line"/>
      <point x="183" y="592" type="line"/>
      <point x="183" y="690" type="line"/>
      <point x="58" y="690" type="line"/>
    </contour>
    <contour>
      <point x="424" y="0" type="move" name="ogonek"/>
    </contour>
    <contour>
      <point x="217" y="690" type="move" name="top"/>
    </contour>
  </outline>
</glyph>
<glyph name="B" format="1">
  <advance width="456"/>
  <unicode hex="0042"/>
  <outline>
    <contour>
      <point x="54" y="0" type="line"/>
      <point x="258" y="0" type="line" smooth="yes"/>
      <point x="372" y="0"/>
      <point x="427" y="61"/>
      <point x="427" y="193" type="curve" smooth="yes"/>
      <point x="427" y="294"/>
      <point x="388" y="338"/>
      <point x="311" y="340" type="curve"/>
      <point x="311" y="364" type="line"/>
      <point x="381" y="366"/>
      <point x="420" y="407"/>
      <point x="420" y="504" type="curve" smooth="yes"/>
      <point x="420" y="632"/>
      <point x="366" y="690"/>
      <point x="254" y="690" type="curve" smooth="yes"/>
      <point x="13" y="690" type="line"/>
      <point x="13" y="592" type="line"/>
      <point x="54" y="592" type="line"/>
    </contour>
    <contour>
      <point x="249" y="98" type="curve" smooth="yes"/>
      <point x="175" y="98" type="line"/>
      <point x="175" y="307" type="line"/>
      <point x="249" y="307" type="line" smooth="yes"/>
      <point x="285" y="307"/>
      <point x="302" y="288"/>
      <point x="302" y="247" type="curve" smooth="yes"/>
      <point x="302" y="158" type="line" smooth="yes"/>
      <point x="302" y="117"/>
      <point x="285" y="98"/>
    </contour>
    <contour>
      <point x="246" y="397" type="curve" smooth="yes"/>
      <point x="175" y="397" type="line"/>
      <point x="175" y="592" type="line"/>
      <point x="246" y="592" type="line" smooth="yes"/>
      <point x="281" y="592"/>
      <point x="297" y="573"/>
      <point x="297" y="534" type="curve" smooth="yes"/>
      <point x="297" y="456" type="line" smooth="yes"/>
      <point x="297" y="416"/>
      <point x="281" y="397"/>
    </contour>
  </outline>
</glyph>
<glyph name="C" format="1">
  <advance width="459"/>
  <unicode hex="0043"/>
  <outline>
    <contour>
      <point x="235" y="-10" type="curve" smooth="yes"/>
      <point x="361" y="-10"/>
      <point x="421" y="64"/>
      <point x="429" y="256" type="curve"/>
      <point x="307" y="256" type="line"/>
      <point x="307" y="172" type="line" smooth="yes"/>
      <point x="307" y="126"/>
      <point x="286" y="96"/>
      <point x="235" y="96" type="curve" smooth="yes"/>
      <point x="183" y="96"/>
      <point x="160" y="125"/>
      <point x="160" y="192" type="curve" smooth="yes"/>
      <point x="160" y="498" type="line" smooth="yes"/>
      <point x="160" y="565"/>
      <point x="183" y="594"/>
      <point x="235" y="594" type="curve" smooth="yes"/>
      <point x="286" y="594"/>
      <point x="307" y="565"/>
      <point x="307" y="520" type="curve" smooth="yes"/>
      <point x="307" y="442" type="line"/>
      <point x="428" y="442" type="line"/>
      <point x="418" y="629"/>
      <point x="359" y="700"/>
      <point x="235" y="700" type="curve" smooth="yes"/>
      <point x="91" y="700"/>
      <point x="31" y="610"/>
      <point x="31" y="345" type="curve" smooth="yes"/>
      <point x="31" y="80"/>
      <point x="91" y="-10"/>
    </contour>
    <contour>
      <point x="235" y="0" type="move" name="bottom"/>
    </contour>
    <contour>
      <point x="235" y="690" type="move" name="top"/>
    </contour>
  </outline>
</glyph>
<glyph name="E" format="1">
  <advance width="427"/>
  <unicode hex="0045"/>
  <outline>
    <contour>
      <point x="290" y="483" type="line"/>
      <point x="393" y="483" type="line"/>
      <point x="393" y="690" type="line"/>
      <point x="14" y="690" type="line"/>
      <point x="14" y="592" type="line"/>
      <point x="54" y="592" type="line"/>
      <point x="54" y="0" type="line"/>
      <point x="397" y="0" type="line"/>
      <point x="397" y="211" type="line"/>
      <point x="294" y="211" type="line"/>
      <point x="294" y="98" type="line"/>
      <point x="176" y="98" type="line"/>
      <point x="176" y="307" type="line"/>
      <point x="315" y="307" type="line"/>
      <point x="315" y="397" type="line"/>
      <point x="176" y="397" type="line"/>
      <point x="176" y="592" type="line"/>
      <point x="290" y="592" type="line"/>
    </contour>
    <contour>
      <point x="397" y="0" type="move" name="ogonek"/>
    </contour>
    <contour>
      <point x="213" y="690" type="move" name="top"/>
    </contour>
  </outline>
</glyph>
<glyph name="I" format="1">
  <advance width="266"/>
  <unicode hex="0049"/>
  <outline>
    <contour>
      <point x="31" y="0" type="line"/>
      <point x="235" y="0" type="line"/>
      <point x="235" y="98" type="line"/>
      <point x="194" y="98" type="line"/>
      <point x="194" y="592" type="line"/>
      <point x="235" y="592" type="line"/>
      <point x="235" y="690" type="line"/>
      <point x="31" y="690" type="line"/>
      <point x="31" y="592" type="line"/>
      <point x="73" y="592" type="line"/>
      <point x="73" y="98" type="line"/>
      <point x="31" y="98" type="line"/>
    </contour>
    <contour>
      <point x="133" y="690" type="move" name="top"/>
    </contour>
  </outline>
</glyph>
<glyph name="J" format="1">
  <advance width="423"/>
  <unicode hex="004A"/>
  <outline>
    <contour>
      <point x="197" y="-10" type="curve" smooth="yes"/>
      <point x="328" y="-10"/>
      <point x="379" y="62"/>
      <point x="379" y="262" type="curve" smooth="yes"/>
      <point x="379" y="690" type="line"/>
      <point x="131" y="690" type="line"/>
      <point x="131" y="592" type="line"/>
      <point x="258" y="592" type="line"/>
      <point x="258" y="175" type="line" smooth="yes"/>
      <point x="258" y="120"/>
      <point x="239" y="96"/>
      <point x="197" y="96" type="curve" smooth="yes"/>
      <point x="155" y="96"/>
      <point x="137" y="120"/>
      <point x="137" y="175" type="curve" smooth="yes"/>
      <point x="137" y="296" type="line"/>
      <point x="15" y="296" type="line"/>
      <point x="15" y="260" type="line" smooth="yes"/>
      <point x="15" y="62"/>
      <point x="66" y="-10"/>
    </contour>
    <contour>
      <point x="262" y="690" type="move" name="top"/>
    </contour>
  </outline>
</glyph>
<glyph name="L" format="1">
  <advance width="407"/>
  <unicode hex="004C"/>
  <outline>
    <contour>
      <point x="54" y="0" type="line"/>
      <point x="387" y="0" type="line"/>
      <point x="387" y="211" type="line"/>
      <point x="284" y="211" type="line"/>
      <point x="284" y="98" type="line"/>
      <point x="175" y="98" type="line"/>
      <point x="175" y="592" type="line"/>
      <point x="216" y="592" type="line"/>
      <point x="216" y="690" type="line"/>
      <point x="13" y="690" type="line"/>
      <point x="13" y="592" type="line"/>
      <point x="54" y="592" type="line"/>
    </contour>
  </outline>
</glyph>
<glyph name="M" format="1">
  <advance width="669"/>
  <unicode hex="004D"/>
  <outline>
    <contour>
      <point x="49" y="0" type="line"/>
      <point x="166" y="0" type="line"/>
      <point x="166" y="577" type="line"/>
      <point x="190" y="577" type="line"/>
      <point x="280" y="0" type="line"/>
      <point x="384" y="0" type="line"/>
      <point x="475" y="577" type="line"/>
      <point x="498" y="577" type="line"/>
      <point x="498" y="0" type="line"/>
      <point x="620" y="0" type="line"/>
      <point x="620" y="690" type="line"/>
      <point x="409" y="690" type="line"/>
      <point x="346" y="284" type="line"/>
      <point x="322" y="284" type="line"/>
      <point x="259" y="690" type="line"/>
      <point x="49" y="690" type="line"/>
    </contour>
  </outline>
</glyph>
<glyph name="O" format="1">
  <advance width="475"/>
  <unicode hex="004F"/>
  <outline>
    <contour>
      <point x="238" y="-10" type="curve" smooth="yes"/>
      <point x="384" y="-10"/>
      <point x="444" y="79"/>
      <point x="444" y="345" type="curve" smooth="yes"/>
      <point x="444" y="611"/>
      <point x="384" y="700"/>
      <point x="238" y="700" type="curve" smooth="yes"/>
      <point x="91" y="700"/>
      <point x="31" y="611"/>
      <point x="31" y="345" type="curve" smooth="yes"/>
      <point x="31" y="79"/>
      <point x="91" y="-10"/>
    </contour>
    <contour>
      <point x="238" y="96" type="curve" smooth="yes"/>
      <point x="184" y="96"/>
      <point x="160" y="126"/>
      <point x="160" y="194" type="curve" smooth="yes"/>
      <point x="160" y="496" type="line" smooth="yes"/>
      <point x="160" y="564"/>
      <point x="184" y="594"/>
      <point x="238" y="594" type="curve" smooth="yes"/>
      <point x="291" y="594"/>
      <point x="315" y="564"/>
      <point x="315" y="496" type="curve" smooth="yes"/>
      <point x="315" y="194" type="line" smooth="yes"/>
      <point x="315" y="126"/>
      <point x="291" y="96"/>
    </contour>
    <contour>
      <point x="241" y="690" type="move" name="top"/>
    </contour>
  </outline>
</glyph>
<glyph name="Q" format="1">
  <advance width="475"/>
  <unicode hex="0051"/>
  <outline>
    <contour>
      <point x="259" y="-132" type="curve" smooth="yes"/>
      <point x="387" y="-132" type="line"/>
      <point x="387" y="-38" type="line"/>
      <point x="296" y="-38" type="line"/>
      <point x="296" y="2" type="line"/>
      <point x="399" y="21"/>
      <point x="444" y="119"/>
      <point x="444" y="347" type="curve" smooth="yes"/>
      <point x="444" y="611"/>
      <point x="384" y="700"/>
      <point x="238" y="700" type="curve" smooth="yes"/>
      <point x="91" y="700"/>
      <point x="31" y="611"/>
      <point x="31" y="347" type="curve" smooth="yes"/>
      <point x="31" y="80"/>
      <point x="91" y="-8"/>
      <point x="238" y="-8" type="curve"/>
      <point x="179" y="54" type="line"/>
      <point x="179" y="-52" type="line" smooth="yes"/>
      <point x="179" y="-104"/>
      <point x="207" y="-132"/>
    </contour>
    <contour>
      <point x="238" y="98" type="curve" smooth="yes"/>
      <point x="184" y="98"/>
      <point x="160" y="128"/>
      <point x="160" y="195" type="curve" smooth="yes"/>
      <point x="160" y="497" type="line" smooth="yes"/>
      <point x="160" y="564"/>
      <point x="184" y="594"/>
      <point x="238" y="594" type="curve" smooth="yes"/>
      <point x="291" y="594"/>
      <point x="315" y="564"/>
      <point x="315" y="497" type="curve" smooth="yes"/>
      <point x="315" y="195" type="line" smooth="yes"/>
      <point x="315" y="128"/>
      <point x="291" y="98"/>
    </contour>
    <contour>
      <point x="238" y="690" type="move" name="top"/>
    </contour>
  </outline>
</glyph>
<glyph name="U" format="1">
  <advance width="484"/>
  <unicode hex="0055"/>
  <outline>
    <contour>
      <point x="183" y="-10" type="curve" smooth="yes"/>
      <point x="255" y="-10"/>
      <point x="296" y="29"/>
      <point x="304" y="105" type="curve"/>
      <point x="327" y="105" type="line"/>
      <point x="327" y="80" type="line" smooth="yes"/>
      <point x="327" y="28"/>
      <point x="355" y="0"/>
      <point x="407" y="0" type="curve" smooth="yes"/>
      <point x="470" y="0" type="line"/>
      <point x="470" y="98" type="line"/>
      <point x="430" y="98" type="line"/>
      <point x="430" y="690" type="line"/>
      <point x="308" y="690" type="line"/>
      <point x="308" y="180" type="line" smooth="yes"/>
      <point x="308" y="122"/>
      <point x="287" y="96"/>
      <point x="240" y="96" type="curve" smooth="yes"/>
      <point x="194" y="96"/>
      <point x="172" y="122"/>
      <point x="172" y="180" type="curve" smooth="yes"/>
      <point x="172" y="690" type="line"/>
      <point x="11" y="690" type="line"/>
      <point x="11" y="592" type="line"/>
      <point x="51" y="592" type="line"/>
      <point x="51" y="157" type="line" smooth="yes"/>
      <point x="51" y="48"/>
      <point x="97" y="-10"/>
    </contour>
    <contour>
      <point x="240" y="690" type="move" name="top"/>
    </contour>
  </outline>
</glyph>
<glyph name="W" format="1">
  <advance width="666"/>
  <unicode hex="0057"/>
  <outline>
    <contour>
      <point x="89" y="0" type="line"/>
      <point x="279" y="0" type="line"/>
      <point x="322" y="437" type="line"/>
      <point x="346" y="437" type="line"/>
      <point x="388" y="0" type="line"/>
      <point x="577" y="0" type="line"/>
      <point x="655" y="690" type="line"/>
      <point x="540" y="690" type="line"/>
      <point x="485" y="112" type="line"/>
      <point x="461" y="112" type="line"/>
      <point x="400" y="690" type="line"/>
      <point x="271" y="690" type="line"/>
      <point x="211" y="112" type="line"/>
      <point x="187" y="112" type="line"/>
      <point x="132" y="690" type="line"/>
      <point x="11" y="690" type="line"/>
    </contour>
  </outline>
</glyph>
<glyph name="X" format="1">
  <advance width="468"/>
  <unicode hex="0058"/>
  <outline>
    <contour>
      <point x="22" y="0" type="line"/>
      <point x="160" y="0" type="line"/>
      <point x="220" y="290" type="line"/>
      <point x="244" y="290" type="line"/>
      <point x="303" y="0" type="line"/>
      <point x="447" y="0" type="line"/>
      <point x="447" y="98" type="line"/>
      <point x="406" y="98" type="line"/>
      <point x="336" y="410" type="line"/>
      <point x="335" y="329" type="line"/>
      <point x="401" y="592" type="line"/>
      <point x="442" y="592" type="line"/>
      <point x="442" y="690" type="line"/>
      <point x="303" y="690" type="line"/>
      <point x="248" y="418" type="line"/>
      <point x="225" y="418" type="line"/>
      <point x="170" y="690" type="line"/>
      <point x="26" y="690" type="line"/>
      <point x="26" y="592" type="line"/>
      <point x="67" y="592" type="line"/>
      <point x="133" y="329" type="line"/>
      <point x="132" y="410" type="line"/>
      <point x="62" y="98" type="line"/>
      <point x="22" y="98" type="line"/>
    </contour>
  </outline>
</glyph>
<glyph name="Y" format="1">
  <advance width="419"/>
  <unicode hex="0059"/>
  <outline>
    <contour>
      <point x="107" y="0" type="line"/>
      <point x="312" y="0" type="line"/>
      <point x="312" y="98" type="line"/>
      <point x="270" y="98" type="line"/>
      <point x="270" y="259" type="line"/>
      <point x="414" y="690" type="line"/>
      <point x="294" y="690" type="line"/>
      <point x="224" y="440" type="line"/>
      <point x="200" y="440" type="line"/>
      <point x="130" y="690" type="line"/>
      <point x="6" y="690" type="line"/>
      <point x="149" y="259" type="line"/>
      <point x="149" y="98" type="line"/>
      <point x="107" y="98" type="line"/>
    </contour>
    <contour>
      <point x="212" y="690" type="move" name="top"/>
    </contour>
  </outline>
</glyph>
<glyph name="Z" format="1">
  <advance width="393"/>
  <unicode hex="005A"/>
  <outline>
    <contour>
      <point x="21" y="0" type="line"/>
      <point x="372" y="0" type="line"/>
      <point x="372" y="98" type="line"/>
      <point x="151" y="98" type="line"/>
      <point x="371" y="592" type="line"/>
      <point x="371" y="690" type="line"/>
      <point x="21" y="690" type="line"/>
      <point x="21" y="592" type="line"/>
      <point x="241" y="592" type="line"/>
      <point x="21" y="98" type="line"/>
    </contour>
    <contour>
      <point x="196" y="690" type="move" name="top"/>
    </contour>
  </outline>
</glyph>
<glyph name="asciicircum" format="1">
  <advance width="384"/>
  <unicode hex="005E"/>
  <outline>
    <contour>
      <point x="33" y="462" type="line"/>
      <point x="129" y="462" type="line"/>
      <point x="182" y="603" type="line"/>
      <point x="205" y="603" type="line"/>
      <point x="256" y="462" type="line"/>
      <point x="350" y="462" type="line"/>
      <point x="257" y="690" type="line"/>
      <point x="134" y="690" type="line"/>
    </contour>
  </outline>
</glyph>
<glyph name="a" format="1">
  <advance width="410"/>
  <unicode hex="0061"/>
  <outline>
    <contour>
      <point x="139" y="-10" type="curve" smooth="yes"/>
      <point x="203" y="-10"/>
      <point x="237" y="25"/>
      <point x="244" y="94" type="curve"/>
      <point x="268" y="94" type="line"/>
      <point x="268" y="79" type="line" smooth="yes"/>
      <point x="268" y="28"/>
      <point x="296" y="0"/>
      <point x="347" y="0" type="curve" smooth="yes"/>
      <point x="402" y="0" type="line"/>
      <point x="402" y="94" type="line"/>
      <point x="366" y="94" type="line"/>
      <point x="366" y="374" type="line" smooth="yes"/>
      <point x="366" y="486"/>
      <point x="310" y="544"/>
      <point x="199" y="544" type="curve" smooth="yes"/>
      <point x="92" y="544"/>
      <point x="40" y="492"/>
      <point x="28" y="362" type="curve"/>
      <point x="144" y="362" type="line"/>
      <point x="144" y="388" type="line"/>
      <point x="144" y="421"/>
      <point x="160" y="442"/>
      <point x="197" y="442" type="curve" smooth="yes"/>
      <point x="233" y="442"/>
      <point x="249" y="423"/>
      <point x="249" y="377" type="curve" smooth="yes"/>
      <point x="249" y="270" type="line"/>
      <point x="249" y="251" type="line"/>
      <point x="249" y="148" type="line" smooth="yes"/>
      <point x="249" y="107"/>
      <point x="231" y="88"/>
      <point x="193" y="88" type="curve" smooth="yes"/>
      <point x="159" y="88"/>
      <point x="141" y="105"/>
      <point x="141" y="139" type="curve" smooth="yes"/>
      <point x="141" y="170" type="line" smooth="yes"/>
      <point x="141" y="204"/>
      <point x="157" y="221"/>
      <point x="194" y="226" type="curve" smooth="yes"/>
      <point x="249" y="233" type="line"/>
      <point x="249" y="319" type="line"/>
      <point x="167" y="308" type="line" smooth="yes"/>
      <point x="67" y="294"/>
      <point x="20" y="239"/>
      <point x="20" y="136" type="curve" smooth="yes"/>
      <point x="20" y="43"/>
      <point x="64" y="-10"/>
    </contour>
    <contour>
      <point x="402" y="0" type="move" name="ogonek"/>
    </contour>
    <contour>
      <point x="203" y="534" type="move" name="top"/>
    </contour>
  </outline>
</glyph>
<glyph name="i" format="1">
  <advance width="207"/>
  <unicode hex="0069"/>
  <outline>
    <contour>
      <point x="47" y="0" type="line"/>
      <point x="165" y="0" type="line"/>
      <point x="165" y="534" type="line"/>
      <point x="10" y="534" type="line"/>
      <point x="10" y="440" type="line"/>
      <point x="47" y="440" type="line"/>
    </contour>
    <contour>
      <point x="42" y="578" type="line"/>
      <point x="166" y="578" type="line"/>
      <point x="166" y="690" type="line"/>
      <point x="42" y="690" type="line"/>
    </contour>
  </outline>
</glyph>
<glyph name="k" format="1">
  <advance width="424"/>
  <unicode hex="006B"/>
  <outline>
    <contour>
      <point x="42" y="0" type="line"/>
      <point x="160" y="0" type="line"/>
      <point x="160" y="231" type="line"/>
      <point x="199" y="231" type="line"/>
      <point x="290" y="0" type="line"/>
      <point x="415" y="0" type="line"/>
      <point x="415" y="94" type="line"/>
      <point x="380" y="94" type="line"/>
      <point x="290" y="309" type="line"/>
      <point x="286" y="256" type="line"/>
      <point x="413" y="534" type="line"/>
      <point x="289" y="534" type="line"/>
      <point x="199" y="321" type="line"/>
      <point x="160" y="321" type="line"/>
      <point x="160" y="690" type="line"/>
      <point x="7" y="690" type="line"/>
      <point x="7" y="596" type="line"/>
      <point x="42" y="596" type="line"/>
    </contour>
  </outline>
</glyph>
<glyph name="n" format="1">
  <advance width="443"/>
  <unicode hex="006E"/>
  <outline>
    <contour>
      <point x="52" y="0" type="line"/>
      <point x="169" y="0" type="line"/>
      <point x="169" y="373" type="line" smooth="yes"/>
      <point x="169" y="421"/>
      <point x="186" y="442"/>
      <point x="223" y="442" type="curve" smooth="yes"/>
      <point x="260" y="442"/>
      <point x="277" y="421"/>
      <point x="277" y="373" type="curve" smooth="yes"/>
      <point x="277" y="0" type="line"/>
      <point x="430" y="0" type="line"/>
      <point x="430" y="94" type="line"/>
      <point x="394" y="94" type="line"/>
      <point x="394" y="394" type="line" smooth="yes"/>
      <point x="394" y="492"/>
      <point x="354" y="544"/>
      <point x="279" y="544" type="curve" smooth="yes"/>
      <point x="216" y="544"/>
      <point x="181" y="508"/>
      <point x="174" y="437" type="curve"/>
      <point x="150" y="437" type="line"/>
      <point x="150" y="534" type="line"/>
      <point x="16" y="534" type="line"/>
      <point x="16" y="440" type="line"/>
      <point x="52" y="440" type="line"/>
    </contour>
    <contour>
      <point x="225" y="534" type="move" name="top"/>
    </contour>
  </outline>
</glyph>
<glyph name="p" format="1">
  <advance width="441"/>
  <unicode hex="0070"/>
  <outline>
    <contour>
      <point x="52" y="-132" type="line"/>
      <point x="170" y="-132" type="line"/>
      <point x="170" y="-34" type="line" smooth="yes"/>
      <point x="170" y="-7"/>
      <point x="167" y="25"/>
      <point x="160" y="88" type="curve"/>
      <point x="183" y="88" type="line"/>
      <point x="192" y="22"/>
      <point x="224" y="-10"/>
      <point x="277" y="-10" type="curve" smooth="yes"/>
      <point x="367" y="-10"/>
      <point x="414" y="81"/>
      <point x="414" y="267" type="curve" smooth="yes"/>
      <point x="414" y="453"/>
      <point x="366" y="544"/>
      <point x="277" y="544" type="curve" smooth="yes"/>
      <point x="219" y="544"/>
      <point x="182" y="505"/>
      <point x="174" y="436" type="curve"/>
      <point x="151" y="436" type="line"/>
      <point x="151" y="534" type="line"/>
      <point x="17" y="534" type="line"/>
      <point x="17" y="440" type="line"/>
      <point x="52" y="440" type="line"/>
    </contour>
    <contour>
      <point x="229" y="92" type="curve" smooth="yes"/>
      <point x="188" y="92"/>
      <point x="170" y="116"/>
      <point x="170" y="171" type="curve" smooth="yes"/>
      <point x="170" y="363" type="line" smooth="yes"/>
      <point x="170" y="418"/>
      <point x="188" y="442"/>
      <point x="229" y="442" type="curve" smooth="yes"/>
      <point x="271" y="442"/>
      <point x="289" y="418"/>
      <point x="289" y="363" type="curve" smooth="yes"/>
      <point x="289" y="171" type="line" smooth="yes"/>
      <point x="289" y="116"/>
      <point x="271" y="92"/>
    </contour>
  </outline>
</glyph>
<glyph name="q" format="1">
  <advance width="433"/>
  <unicode hex="0071"/>
  <outline>
    <contour>
      <point x="271" y="-37" type="curve" smooth="yes"/>
      <point x="271" y="-132" type="line"/>
      <point x="425" y="-132" type="line"/>
      <point x="425" y="-38" type="line"/>
      <point x="389" y="-38" type="line"/>
      <point x="389" y="534" type="line"/>
      <point x="290" y="534" type="line"/>
      <point x="290" y="436" type="line"/>
      <point x="267" y="436" type="line"/>
      <point x="260" y="505"/>
      <point x="222" y="544"/>
      <point x="164" y="544" type="curve" smooth="yes"/>
      <point x="75" y="544"/>
      <point x="27" y="453"/>
      <point x="27" y="267" type="curve" smooth="yes"/>
      <point x="27" y="81"/>
      <point x="75" y="-10"/>
      <point x="164" y="-10" type="curve" smooth="yes"/>
      <point x="217" y="-10"/>
      <point x="249" y="22"/>
      <point x="258" y="88" type="curve"/>
      <point x="281" y="88" type="line"/>
      <point x="274" y="25"/>
      <point x="271" y="-7"/>
    </contour>
    <contour>
      <point x="212" y="92" type="curve" smooth="yes"/>
      <point x="170" y="92"/>
      <point x="152" y="116"/>
      <point x="152" y="171" type="curve" smooth="yes"/>
      <point x="152" y="363" type="line" smooth="yes"/>
      <point x="152" y="418"/>
      <point x="170" y="442"/>
      <point x="212" y="442" type="curve" smooth="yes"/>
      <point x="253" y="442"/>
      <point x="271" y="418"/>
      <point x="271" y="363" type="curve" smooth="yes"/>
      <point x="271" y="171" type="line" smooth="yes"/>
      <point x="271" y="116"/>
      <point x="253" y="92"/>
    </contour>
  </outline>
</glyph>
<glyph name="u" format="1">
  <advance width="443"/>
  <unicode hex="0075"/>
  <outline>
    <contour>
      <point x="164" y="-10" type="curve" smooth="yes"/>
      <point x="227" y="-10"/>
      <point x="262" y="26"/>
      <point x="269" y="97" type="curve"/>
      <point x="292" y="97" type="line"/>
      <point x="292" y="80" type="line" smooth="yes"/>
      <point x="292" y="28"/>
      <point x="320" y="0"/>
      <point x="372" y="0" type="curve" smooth="yes"/>
      <point x="426" y="0" type="line"/>
      <point x="426" y="94" type="line"/>
      <point x="391" y="94" type="line"/>
      <point x="391" y="534" type="line"/>
      <point x="273" y="534" type="line"/>
      <point x="273" y="161" type="line" smooth="yes"/>
      <point x="273" y="113"/>
      <point x="257" y="92"/>
      <point x="220" y="92" type="curve" smooth="yes"/>
      <point x="183" y="92"/>
      <point x="166" y="113"/>
      <point x="166" y="161" type="curve" smooth="yes"/>
      <point x="166" y="534" type="line"/>
      <point x="13" y="534" type="line"/>
      <point x="13" y="440" type="line"/>
      <point x="48" y="440" type="line"/>
      <point x="48" y="140" type="line" smooth="yes"/>
      <point x="48" y="42"/>
      <point x="88" y="-10"/>
    </contour>
    <contour>
      <point x="220" y="534" type="move" name="top"/>
    </contour>
  </outline>
</glyph>
<glyph name="w" format="1">
  <advance width="632"/>
  <unicode hex="0077"/>
  <outline>
    <contour>
      <point x="84" y="0" type="line"/>
      <point x="269" y="0" type="line"/>
      <point x="304" y="300" type="line"/>
      <point x="327" y="300" type="line"/>
      <point x="362" y="0" type="line"/>
      <point x="547" y="0" type="line"/>
      <point x="618" y="534" type="line"/>
      <point x="504" y="534" type="line"/>
      <point x="457" y="109" type="line"/>
      <point x="433" y="109" type="line"/>
      <point x="380" y="534" type="line"/>
      <point x="255" y="534" type="line"/>
      <point x="202" y="109" type="line"/>
      <point x="178" y="109" type="line"/>
      <point x="131" y="534" type="line"/>
      <point x="13" y="534" type="line"/>
    </contour>
  </outline>
</glyph>
<glyph name="x" format="1">
  <advance width="420"/>
  <unicode hex="0078"/>
  <outline>
    <contour>
      <point x="18" y="0" type="line"/>
      <point x="147" y="0" type="line"/>
      <point x="196" y="214" type="line"/>
      <point x="220" y="214" type="line"/>
      <point x="269" y="0" type="line"/>
      <point x="401" y="0" type="line"/>
      <point x="401" y="94" type="line"/>
      <point x="366" y="94" type="line"/>
      <point x="307" y="332" type="line"/>
      <point x="306" y="251" type="line"/>
      <point x="361" y="440" type="line"/>
      <point x="397" y="440" type="line"/>
      <point x="397" y="534" type="line"/>
      <point x="268" y="534" type="line"/>
      <point x="224" y="338" type="line"/>
      <point x="200" y="338" type="line"/>
      <point x="156" y="534" type="line"/>
      <point x="23" y="534" type="line"/>
      <point x="23" y="440" type="line"/>
      <point x="59" y="440" type="line"/>
      <point x="114" y="251" type="line"/>
      <point x="113" y="332" type="line"/>
      <point x="54" y="94" type="line"/>
      <point x="18" y="94" type="line"/>
    </contour>
  </outline>
</glyph>
<glyph name="z" format="1">
  <advance width="357"/>
  <unicode hex="007A"/>
  <outline>
    <contour>
      <point x="19" y="0" type="line"/>
      <point x="338" y="0" type="line"/>
      <point x="338" y="94" type="line"/>
      <point x="148" y="94" type="line"/>
      <point x="337" y="440" type="line"/>
      <point x="337" y="534" type="line"/>
      <point x="20" y="534" type="line"/>
      <point x="20" y="440" type="line"/>
      <point x="208" y="440" type="line"/>
      <point x="19" y="94" type="line"/>
    </contour>
    <contour>
      <point x="178" y="534" type="move" name="top"/>
    </contour>
  </outline>
</glyph>
<glyph name="braceleft" format="1">
  <advance width="263"/>
  <unicode hex="007B"/>
  <outline>
    <contour>
      <point x="145" y="-92" type="curve" smooth="yes"/>
      <point x="239" y="-92" type="line"/>
      <point x="239" y="-1" type="line"/>
      <point x="197" y="-1" type="line" smooth="yes"/>
      <point x="180" y="-1"/>
      <point x="172" y="7"/>
      <point x="172" y="23" type="curve" smooth="yes"/>
      <point x="172" y="50"/>
      <point x="191" y="200"/>
      <point x="191" y="249" type="curve" smooth="yes"/>
      <point x="191" y="306"/>
      <point x="168" y="333"/>
      <point x="111" y="333" type="curve"/>
      <point x="111" y="357" type="line"/>
      <point x="168" y="357"/>
      <point x="191" y="384"/>
      <point x="191" y="441" type="curve" smooth="yes"/>
      <point x="191" y="490"/>
      <point x="172" y="640"/>
      <point x="172" y="667" type="curve" smooth="yes"/>
      <point x="172" y="683"/>
      <point x="180" y="691"/>
      <point x="197" y="691" type="curve" smooth="yes"/>
      <point x="239" y="691" type="line"/>
      <point x="239" y="782" type="line"/>
      <point x="145" y="782" type="line" smooth="yes"/>
      <point x="92" y="782"/>
      <point x="64" y="754"/>
      <point x="64" y="700" type="curve" smooth="yes"/>
      <point x="64" y="651"/>
      <point x="87" y="477"/>
      <point x="87" y="434" type="curve" smooth="yes"/>
      <point x="87" y="404"/>
      <point x="76" y="390"/>
      <point x="51" y="390" type="curve" smooth="yes"/>
      <point x="18" y="390" type="line"/>
      <point x="18" y="300" type="line"/>
      <point x="51" y="300" type="line" smooth="yes"/>
      <point x="76" y="300"/>
      <point x="87" y="286"/>
      <point x="87" y="256" type="curve" smooth="yes"/>
      <point x="87" y="213"/>
      <point x="64" y="39"/>
      <point x="64" y="-10" type="curve" smooth="yes"/>
      <point x="64" y="-64"/>
      <point x="92" y="-92"/>
    </contour>
  </outline>
</glyph>
<glyph name="asciitilde" format="1">
  <advance width="384"/>
  <unicode hex="007E"/>
  <outline>
    <contour>
      <point x="22" y="272" type="curve"/>
      <point x="113" y="272" type="line"/>
      <point x="113" y="297"/>
      <point x="123" y="310"/>
      <point x="142" y="310" type="curve" smooth="yes"/>
      <point x="175" y="310"/>
      <point x="208" y="272"/>
      <point x="269" y="272" type="curve" smooth="yes"/>
      <point x="332" y="272"/>
      <point x="361" y="313"/>
      <point x="361" y="402" type="curve"/>
      <point x="270" y="402" type="line"/>
      <point x="270" y="377"/>
      <point x="260" y="364"/>
      <point x="242" y="364" type="curve" smooth="yes"/>
      <point x="208" y="364"/>
      <point x="176" y="402"/>
      <point x="115" y="402" type="curve" smooth="yes"/>
      <point x="51" y="402"/>
      <point x="22" y="361"/>
    </contour>
  </outline>
</glyph>
<glyph name="exclamdown" format="1">
  <advance width="204"/>
  <unicode hex="00A1"/>
  <outline>
    <contour>
      <point x="139" y="364" type="line"/>
      <point x="64" y="364" type="line"/>
      <point x="38" y="-58" type="line"/>
      <point x="38" y="-156" type="line"/>
      <point x="166" y="-156" type="line"/>
      <point x="166" y="-58" type="line"/>
    </contour>
    <contour>
      <point x="165" y="534" type="line"/>
      <point x="38" y="534" type="line"/>
      <point x="38" y="409" type="line"/>
      <point x="165" y="409" type="line"/>
    </contour>
  </outline>
</glyph>
<glyph name="cent" format="1">
  <advance width="421"/>
  <unicode hex="00A2"/>
  <outline>
    <contour>
      <point x="215" y="-4" type="curve" smooth="yes"/>
      <point x="323" y="-4"/>
      <point x="379" y="54"/>
      <point x="389" y="194" type="curve"/>
      <point x="271" y="194" type="line"/>
      <point x="271" y="155" type="line"/>
      <point x="271" y="119"/>
      <point x="255" y="96"/>
      <point x="215" y="96" type="curve" smooth="yes"/>
      <point x="175" y="96"/>
      <point x="157" y="118"/>
      <point x="157" y="172" type="curve" smooth="yes"/>
      <point x="157" y="362" type="line" smooth="yes"/>
      <point x="157" y="416"/>
      <point x="175" y="438"/>
      <point x="215" y="438" type="curve" smooth="yes"/>
      <point x="255" y="438"/>
      <point x="271" y="415"/>
      <point x="271" y="382" type="curve" smooth="yes"/>
      <point x="271" y="348" type="line"/>
      <point x="389" y="348" type="line"/>
      <point x="377" y="483"/>
      <point x="321" y="538"/>
      <point x="215" y="538" type="curve" smooth="yes"/>
      <point x="90" y="538"/>
      <point x="32" y="459"/>
      <point x="32" y="267" type="curve" smooth="yes"/>
      <point x="32" y="75"/>
      <point x="90" y="-4"/>
    </contour>
    <contour>
      <point x="171" y="-92" type="line"/>
      <point x="259" y="-92" type="line"/>
      <point x="259" y="24" type="line"/>
      <point x="171" y="24" type="line"/>
    </contour>
    <contour>
      <point x="171" y="510" type="line"/>
      <point x="259" y="510" type="line"/>
      <point x="259" y="626" type="line"/>
      <point x="171" y="626" type="line"/>
    </contour>
  </outline>
</glyph>
<glyph name="yen" format="1">
  <advance width="427"/>
  <unicode hex="00A5"/>
  <outline>
    <contour>
      <point x="153" y="0" type="line"/>
      <point x="274" y="0" type="line"/>
      <point x="274" y="259" type="line"/>
      <point x="418" y="690" type="line"/>
      <point x="298" y="690" type="line"/>
      <point x="227" y="440" type="line"/>
      <point x="204" y="440" type="line"/>
      <point x="133" y="690" type="line"/>
      <point x="9" y="690" type="line"/>
      <point x="153" y="259" type="line"/>
    </contour>
    <contour>
      <point x="55" y="145" type="line"/>
      <point x="372" y="145" type="line"/>
      <point x="372" y="222" type="line"/>
      <point x="55" y="222" type="line"/>
    </contour>
    <contour>
      <point x="55" y="255" type="line"/>
      <point x="372" y="255" type="line"/>
      <point x="372" y="332" type="line"/>
      <point x="55" y="332" type="line"/>
    </contour>
  </outline>
</glyph>
<glyph name="section" format="1">
  <advance width="419"/>
  <unicode hex="00A7"/>
  <outline>
    <contour>
      <point x="207" y="-102" type="curve" smooth="yes"/>
      <point x="324" y="-102"/>
      <point x="382" y="-47"/>
      <point x="382" y="57" type="curve" smooth="yes"/>
      <point x="382" y="119"/>
      <point x="359" y="164"/>
      <point x="308" y="189" type="curve"/>
      <point x="308" y="210" type="line"/>
      <point x="364" y="220"/>
      <point x="393" y="256"/>
      <point x="393" y="307" type="curve" smooth="yes"/>
      <point x="393" y="361"/>
      <point x="360" y="403"/>
      <point x="287" y="436" type="curve" smooth="yes"/>
      <point x="203" y="471" type="line" smooth="yes"/>
      <point x="167" y="490"/>
      <point x="152" y="512"/>
      <point x="152" y="547" type="curve" smooth="yes"/>
      <point x="152" y="585"/>
      <point x="171" y="602"/>
      <point x="210" y="602" type="curve" smooth="yes"/>
      <point x="251" y="602"/>
      <point x="270" y="581"/>
      <point x="270" y="547" type="curve" smooth="yes"/>
      <point x="270" y="518" type="line"/>
      <point x="385" y="518" type="line"/>
      <point x="374" y="646"/>
      <point x="322" y="700"/>
      <point x="210" y="700" type="curve" smooth="yes"/>
      <point x="94" y="700"/>
      <point x="36" y="643"/>
      <point x="36" y="541" type="curve" smooth="yes"/>
      <point x="36" y="475"/>
      <point x="60" y="434"/>
      <point x="112" y="409" type="curve"/>
      <point x="112" y="388" type="line"/>
      <point x="57" y="378"/>
      <point x="28" y="341"/>
      <point x="28" y="290" type="curve" smooth="yes"/>
      <point x="28" y="235"/>
      <point x="60" y="195"/>
      <point x="132" y="162" type="curve" smooth="yes"/>
      <point x="215" y="127" type="line" smooth="yes"/>
      <point x="251" y="108"/>
      <point x="266" y="84"/>
      <point x="266" y="50" type="curve" smooth="yes"/>
      <point x="266" y="12"/>
      <point x="246" y="-4"/>
      <point x="209" y="-4" type="curve" smooth="yes"/>
      <point x="166" y="-4"/>
      <point x="148" y="16"/>
      <point x="148" y="51" type="curve" smooth="yes"/>
      <point x="148" y="80" type="line"/>
      <point x="33" y="80" type="line"/>
      <point x="44" y="-49"/>
      <point x="96" y="-102"/>
    </contour>
    <contour>
      <point x="266" y="227" type="curve"/>
      <point x="190" y="255" type="line" smooth="yes"/>
      <point x="152" y="274"/>
      <point x="137" y="295"/>
      <point x="137" y="329" type="curve" smooth="yes"/>
      <point x="137" y="347"/>
      <point x="143" y="360"/>
      <point x="154" y="371" type="curve"/>
      <point x="230" y="343" type="line" smooth="yes"/>
      <point x="268" y="324"/>
      <point x="283" y="303"/>
      <point x="283" y="269" type="curve" smooth="yes"/>
      <point x="283" y="251"/>
      <point x="277" y="238"/>
    </contour>
  </outline>
</glyph>
<glyph name="ordfeminine" format="1">
  <advance width="331"/>
  <unicode hex="00AA"/>
  <note>
ordfeminine
</note>
  <outline>
    <contour>
      <point x="114" y="353" type="curve" smooth="yes"/>
      <point x="160" y="353"/>
      <point x="178" y="376"/>
      <point x="182" y="417" type="curve"/>
      <point x="200" y="417" type="line"/>
      <point x="200" y="413" type="line" smooth="yes"/>
      <point x="200" y="379"/>
      <point x="220" y="359"/>
      <point x="256" y="359" type="curve" smooth="yes"/>
      <point x="299" y="359" type="line"/>
      <point x="299" y="429" type="line"/>
      <point x="276" y="429" type="line"/>
      <point x="276" y="587" type="line" smooth="yes"/>
      <point x="276" y="659"/>
      <point x="236" y="696"/>
      <point x="157" y="696" type="curve" smooth="yes"/>
      <point x="83" y="696"/>
      <point x="45" y="663"/>
      <point x="36" y="581" type="curve"/>
      <point x="126" y="581" type="line"/>
      <point x="126" y="592" type="line" smooth="yes"/>
      <point x="126" y="612"/>
      <point x="136" y="622"/>
      <point x="155" y="622" type="curve" smooth="yes"/>
      <point x="176" y="622"/>
      <point x="185" y="611"/>
      <point x="185" y="586" type="curve" smooth="yes"/>
      <point x="185" y="528" type="line"/>
      <point x="185" y="514" type="line"/>
      <point x="185" y="459" type="line" smooth="yes"/>
      <point x="185" y="436"/>
      <point x="175" y="425"/>
      <point x="154" y="425" type="curve" smooth="yes"/>
      <point x="134" y="425"/>
      <point x="124" y="435"/>
      <point x="124" y="454" type="curve" smooth="yes"/>
      <point x="124" y="463" type="line" smooth="yes"/>
      <point x="124" y="482"/>
      <point x="133" y="491"/>
      <point x="153" y="495" type="curve" smooth="yes"/>
      <point x="185" y="499" type="line"/>
      <point x="185" y="555" type="line"/>
      <point x="133" y="549" type="line" smooth="yes"/>
      <point x="63" y="540"/>
      <point x="31" y="509"/>
      <point x="31" y="444" type="curve" smooth="yes"/>
      <point x="31" y="386"/>
      <point x="64" y="353"/>
    </contour>
    <contour>
      <point x="160" y="690" type="move" name="top"/>
    </contour>
  </outline>
</glyph>
<glyph name="logicalnot" format="1">
  <advance width="384"/>
  <unicode hex="00AC"/>
  <outline>
    <contour>
      <point x="261" y="184" type="line"/>
      <point x="360" y="184" type="line"/>
      <point x="360" y="384" type="line"/>
      <point x="22" y="384" type="line"/>
      <point x="22" y="290" type="line"/>
      <point x="317" y="290" type="line"/>
      <point x="261" y="327" type="line"/>
    </contour>
  </outline>
</glyph>
<glyph name="ordmasculine" format="1">
  <advance width="322"/>
  <unicode hex="00BA"/>
  <note>
ordmasculine
</note>
  <outline>
    <contour>
      <point x="161" y="353" type="curve" smooth="yes"/>
      <point x="251" y="353"/>
      <point x="292" y="405"/>
      <point x="292" y="525" type="curve" smooth="yes"/>
      <point x="292" y="644"/>
      <point x="251" y="696"/>
      <point x="161" y="696" type="curve" smooth="yes"/>
      <point x="71" y="696"/>
      <point x="30" y="645"/>
      <point x="30" y="525" type="curve" smooth="yes"/>
      <point x="30" y="405"/>
      <point x="71" y="353"/>
    </contour>
    <contour>
      <point x="161" y="428" type="curve" smooth="yes"/>
      <point x="138" y="428"/>
      <point x="127" y="441"/>
      <point x="127" y="470" type="curve" smooth="yes"/>
      <point x="127" y="579" type="line" smooth="yes"/>
      <point x="127" y="608"/>
      <point x="138" y="621"/>
      <point x="161" y="621" type="curve" smooth="yes"/>
      <point x="184" y="621"/>
      <point x="196" y="608"/>
      <point x="196" y="579" type="curve" smooth="yes"/>
      <point x="196" y="470" type="line" smooth="yes"/>
      <point x="196" y="441"/>
      <point x="184" y="428"/>
    </contour>
    <contour>
      <point x="161" y="690" type="move" name="top"/>
    </contour>
  </outline>
</glyph>
<glyph name="guillemetright" format="1">
  <advance width="381"/>
  <unicode hex="00BB"/>
  <outline>
    <contour>
      <point x="128" y="486" type="line"/>
      <point x="28" y="486" type="line"/>
      <point x="107" y="294" type="line"/>
      <point x="107" y="274" type="line"/>
      <point x="28" y="82" type="line"/>
      <point x="128" y="82" type="line"/>
      <point x="208" y="260" type="line"/>
      <point x="208" y="308" type="line"/>
    </contour>
    <contour>
      <point x="273" y="486" type="line"/>
      <point x="173" y="486" type="line"/>
      <point x="252" y="294" type="line"/>
      <point x="252" y="274" type="line"/>
      <point x="173" y="82" type="line"/>
      <point x="273" y="82" type="line"/>
      <point x="353" y="260" type="line"/>
      <point x="353" y="308" type="line"/>
    </contour>
  </outline>
</glyph>
<glyph name="questiondown" format="1">
  <advance width="394"/>
  <unicode hex="00BF"/>
  <outline>
    <contour>
      <point x="251" y="281" type="curve" smooth="yes"/>
      <point x="246" y="364" type="line"/>
      <point x="171" y="364" type="line"/>
      <point x="167" y="297" type="line" smooth="yes"/>
      <point x="166" y="269"/>
      <point x="156" y="253"/>
      <point x="128" y="233" type="curve" smooth="yes"/>
      <point x="46" y="179"/>
      <point x="17" y="135"/>
      <point x="17" y="39" type="curve" smooth="yes"/>
      <point x="17" y="13" type="line" smooth="yes"/>
      <point x="17" y="-108"/>
      <point x="81" y="-166"/>
      <point x="200" y="-166" type="curve" smooth="yes"/>
      <point x="326" y="-166"/>
      <point x="378" y="-99"/>
      <point x="383" y="81" type="curve"/>
      <point x="263" y="81" type="line"/>
      <point x="263" y="9" type="line" smooth="yes"/>
      <point x="263" y="-38"/>
      <point x="241" y="-60"/>
      <point x="199" y="-60" type="curve" smooth="yes"/>
      <point x="160" y="-60"/>
      <point x="137" y="-42"/>
      <point x="137" y="0" type="curve" smooth="yes"/>
      <point x="137" y="59" type="line" smooth="yes"/>
      <point x="137" y="93"/>
      <point x="151" y="114"/>
      <point x="184" y="136" type="curve" smooth="yes"/>
      <point x="242" y="177"/>
      <point x="257" y="209"/>
    </contour>
    <contour>
      <point x="272" y="534" type="line"/>
      <point x="145" y="534" type="line"/>
      <point x="145" y="409" type="line"/>
      <point x="272" y="409" type="line"/>
    </contour>
  </outline>
</glyph>
<glyph name="Ccedilla" format="1">
  <advance width="459"/>
  <unicode hex="00C7"/>
  <note>
Ccedilla
</note>
  <outline>
    <component base="C"/>
    <component base="cedillacomb" xOffset="35"/>
    <contour>
      <point x="235" y="0" type="move" name="bottom"/>
    </contour>
    <contour>
      <point x="235" y="690" type="move" name="top"/>
    </contour>
  </outline>
</glyph>
<glyph name="multiply" format="1">
  <advance width="384"/>
  <unicode hex="00D7"/>
  <outline>
    <contour>
      <point x="89" y="168" type="line"/>
      <point x="361" y="439" type="line"/>
      <point x="294" y="506" type="line"/>
      <point x="23" y="235" type="line"/>
    </contour>
    <contour>
      <point x="293" y="169" type="line"/>
      <point x="360" y="235" type="line"/>
      <point x="90" y="505" type="line"/>
      <point x="23" y="439" type="line"/>
    </contour>
  </outline>
</glyph>
<glyph name="germandbls" format="1">
  <advance width="439"/>
  <unicode hex="00DF"/>
  <note>
germandbls
</note>
  <outline>
    <contour>
      <point x="52" y="515" type="curve" smooth="yes"/>
      <point x="52" y="0" type="line"/>
      <point x="170" y="0" type="line"/>
      <point x="170" y="536" type="line" smooth="yes"/>
      <point x="170" y="577"/>
      <point x="190" y="598"/>
      <point x="228" y="598" type="curve" smooth="yes"/>
      <point x="264" y="598"/>
      <point x="283" y="579"/>
      <point x="283" y="541" type="curve" smooth="yes"/>
      <point x="283" y="462" type="line" smooth="yes"/>
      <point x="283" y="423"/>
      <point x="267" y="405"/>
      <point x="231" y="405" type="curve" smooth="yes"/>
      <point x="210" y="405" type="line"/>
      <point x="210" y="315" type="line"/>
      <point x="235" y="315" type="line" smooth="yes"/>
      <point x="273" y="315"/>
      <point x="291" y="296"/>
      <point x="291" y="255" type="curve" smooth="yes"/>
      <point x="291" y="154" type="line" smooth="yes"/>
      <point x="291" y="113"/>
      <point x="273" y="94"/>
      <point x="235" y="94" type="curve" smooth="yes"/>
      <point x="205" y="94" type="line"/>
      <point x="205" y="0" type="line"/>
      <point x="240" y="0" type="line" smooth="yes"/>
      <point x="358" y="0"/>
      <point x="412" y="59"/>
      <point x="412" y="196" type="curve" smooth="yes"/>
      <point x="412" y="302"/>
      <point x="376" y="346"/>
      <point x="304" y="348" type="curve"/>
      <point x="304" y="372" type="line"/>
      <point x="371" y="374"/>
      <point x="404" y="424"/>
      <point x="404" y="512" type="curve" smooth="yes"/>
      <point x="404" y="632"/>
      <point x="341" y="700"/>
      <point x="228" y="700" type="curve" smooth="yes"/>
      <point x="115" y="700"/>
      <point x="52" y="633"/>
    </contour>
    <contour>
      <point x="13" y="440" type="line"/>
      <point x="110" y="440" type="line"/>
      <point x="110" y="534" type="line"/>
      <point x="13" y="534" type="line"/>
    </contour>
  </outline>
</glyph>
<glyph name="ae" format="1">
  <advance width="646"/>
  <unicode hex="00E6"/>
  <note>
ae
</note>
  <outline>
    <contour>
      <point x="139" y="-10" type="curve" smooth="yes"/>
      <point x="202" y="-10"/>
      <point x="252" y="25"/>
      <point x="267" y="98" type="curve"/>
      <point x="291" y="98" type="line"/>
      <point x="307" y="24"/>
      <point x="361" y="-10"/>
      <point x="443" y="-10" type="curve" smooth="yes"/>
      <point x="546" y="-10"/>
      <point x="601" y="45"/>
      <point x="616" y="172" type="curve"/>
      <point x="499" y="172" type="line"/>
      <point x="499" y="146" type="line"/>
      <point x="499" y="116"/>
      <point x="483" y="92"/>
      <point x="443" y="92" type="curve" smooth="yes"/>
      <point x="402" y="92"/>
      <point x="383" y="116"/>
      <point x="383" y="171" type="curve" smooth="yes"/>
      <point x="383" y="366" type="line" smooth="yes"/>
      <point x="383" y="422"/>
      <point x="402" y="446"/>
      <point x="443" y="446" type="curve" smooth="yes"/>
      <point x="484" y="446"/>
      <point x="503" y="422"/>
      <point x="503" y="366" type="curve" smooth="yes"/>
      <point x="503" y="298" type="line"/>
      <point x="582" y="327" type="line"/>
      <point x="328" y="327" type="line"/>
      <point x="328" y="241" type="line"/>
      <point x="620" y="241" type="line"/>
      <point x="620" y="287" type="line" smooth="yes"/>
      <point x="620" y="467"/>
      <point x="564" y="544"/>
      <point x="443" y="544" type="curve" smooth="yes"/>
      <point x="387" y="544"/>
      <point x="347" y="528"/>
      <point x="332" y="493" type="curve"/>
      <point x="308" y="493" type="line"/>
      <point x="295" y="527"/>
      <point x="257" y="544"/>
      <point x="198" y="544" type="curve" smooth="yes"/>
      <point x="92" y="544"/>
      <point x="40" y="492"/>
      <point x="28" y="362" type="curve"/>
      <point x="144" y="362" type="line"/>
      <point x="144" y="388" type="line"/>
      <point x="144" y="421"/>
      <point x="159" y="442"/>
      <point x="196" y="442" type="curve" smooth="yes"/>
      <point x="232" y="442"/>
      <point x="248" y="423"/>
      <point x="248" y="377" type="curve" smooth="yes"/>
      <point x="248" y="270" type="line"/>
      <point x="248" y="251" type="line"/>
      <point x="248" y="148" type="line" smooth="yes"/>
      <point x="248" y="107"/>
      <point x="230" y="88"/>
      <point x="192" y="88" type="curve" smooth="yes"/>
      <point x="159" y="88"/>
      <point x="141" y="105"/>
      <point x="141" y="139" type="curve" smooth="yes"/>
      <point x="141" y="169" type="line" smooth="yes"/>
      <point x="141" y="204"/>
      <point x="156" y="221"/>
      <point x="193" y="226" type="curve" smooth="yes"/>
      <point x="248" y="233" type="line"/>
      <point x="248" y="319" type="line"/>
      <point x="166" y="308" type="line" smooth="yes"/>
      <point x="67" y="294"/>
      <point x="20" y="239"/>
      <point x="20" y="136" type="curve" smooth="yes"/>
      <point x="20" y="43"/>
      <point x="64" y="-10"/>
    </contour>
    <contour>
      <point x="315" y="534" type="move" name="top"/>
    </contour>
  </outline>
</glyph>
<glyph name="oacute" format="1">
  <advance width="424"/>
  <unicode hex="00F3"/>
  <note>
oacute
</note>
  <outline>
    <component base="o"/>
    <component base="acutecomb" xOffset="12"/>
    <contour>
      <point x="212" y="534" type="move" name="top"/>
    </contour>
  </outline>
</glyph>
<glyph name="ugrave" format="1">
  <advance width="443"/>
  <unicode hex="00F9"/>
  <note>
ugrave
</note>
  <outline>
    <component base="u"/>
    <component base="gravecomb" xOffset="20"/>
    <contour>
      <point x="220" y="534" type="move" name="top"/>
    </contour>
  </outline>
</glyph>
<glyph name="thorn" format="1">
  <advance width="432"/>
  <unicode hex="00FE"/>
  <note>
thorn
</note>
  <outline>
    <contour>
      <point x="44" y="-132" type="line"/>
      <point x="161" y="-132" type="line"/>
      <point x="161" y="-34" type="line" smooth="yes"/>
      <point x="161" y="-7"/>
      <point x="158" y="25"/>
      <point x="151" y="88" type="curve"/>
      <point x="175" y="88" type="line"/>
      <point x="184" y="22"/>
      <point x="215" y="-10"/>
      <point x="269" y="-10" type="curve" smooth="yes"/>
      <point x="358" y="-10"/>
      <point x="406" y="81"/>
      <point x="406" y="267" type="curve" smooth="yes"/>
      <point x="406" y="453"/>
      <point x="358" y="544"/>
      <point x="269" y="544" type="curve" smooth="yes"/>
      <point x="215" y="544"/>
      <point x="184" y="512"/>
      <point x="175" y="446" type="curve"/>
      <point x="151" y="446" type="line"/>
      <point x="158" y="509"/>
      <point x="161" y="541"/>
      <point x="161" y="572" type="curve" smooth="yes"/>
      <point x="161" y="690" type="line"/>
      <point x="8" y="690" type="line"/>
      <point x="8" y="596" type="line"/>
      <point x="44" y="596" type="line"/>
    </contour>
    <contour>
      <point x="221" y="92" type="curve" smooth="yes"/>
      <point x="180" y="92"/>
      <point x="161" y="116"/>
      <point x="161" y="171" type="curve" smooth="yes"/>
      <point x="161" y="363" type="line" smooth="yes"/>
      <point x="161" y="418"/>
      <point x="180" y="442"/>
      <point x="221" y="442" type="curve" smooth="yes"/>
      <point x="262" y="442"/>
      <point x="281" y="418"/>
      <point x="281" y="363" type="curve" smooth="yes"/>
      <point x="281" y="171" type="line" smooth="yes"/>
      <point x="281" y="116"/>
      <point x="262" y="92"/>
    </contour>
  </outline>
</glyph>
<glyph name="eogonek" format="1">
  <advance width="414"/>
  <unicode hex="0119"/>
  <outline>
    <contour>
      <point x="211" y="-10" type="curve" smooth="yes"/>
      <point x="315" y="-10"/>
      <point x="371" y="45"/>
      <point x="385" y="172" type="curve"/>
      <point x="268" y="172" type="line"/>
      <point x="268" y="146" type="line"/>
      <point x="268" y="116"/>
      <point x="252" y="92"/>
      <point x="211" y="92" type="curve" smooth="yes"/>
      <point x="170" y="92"/>
      <point x="151" y="116"/>
      <point x="151" y="171" type="curve" smooth="yes"/>
      <point x="151" y="366" type="line" smooth="yes"/>
      <point x="151" y="422"/>
      <point x="170" y="446"/>
      <point x="211" y="446" type="curve" smooth="yes"/>
      <point x="253" y="446"/>
      <point x="272" y="422"/>
      <point x="272" y="366" type="curve" smooth="yes"/>
      <point x="272" y="283" type="line"/>
      <point x="351" y="327" type="line"/>
      <point x="97" y="327" type="line"/>
      <point x="97" y="241" type="line"/>
      <point x="389" y="241" type="line"/>
      <point x="389" y="287" type="line" smooth="yes"/>
      <point x="389" y="467"/>
      <point x="333" y="544"/>
      <point x="211" y="544" type="curve" smooth="yes"/>
      <point x="84" y="544"/>
      <point x="26" y="461"/>
      <point x="26" y="267" type="curve" smooth="yes"/>
      <point x="26" y="73"/>
      <point x="84" y="-10"/>
    </contour>
    <contour>
      <point x="279" y="-136" type="curve" smooth="yes"/>
      <point x="350" y="-136" type="line"/>
      <point x="350" y="-65" type="line"/>
      <point x="310" y="-65" type="line" smooth="yes"/>
      <point x="293" y="-65"/>
      <point x="284" y="-58"/>
      <point x="284" y="-45" type="curve" smooth="yes"/>
      <point x="284" y="-28"/>
      <point x="299" y="-5"/>
      <point x="331" y="34" type="curve"/>
      <point x="261" y="20" type="line"/>
      <point x="261" y="-23" type="line"/>
      <point x="218" y="-29"/>
      <point x="198" y="-46"/>
      <point x="198" y="-77" type="curve" smooth="yes"/>
      <point x="198" y="-115"/>
      <point x="226" y="-136"/>
    </contour>
    <contour>
      <point x="277" y="0" type="move" name="ogonek"/>
    </contour>
    <contour>
      <point x="211" y="534" type="move" name="top"/>
    </contour>
  </outline>
</glyph>
<glyph name="IJ" format="1">
  <advance width="490"/>
  <unicode hex="0132"/>
  <outline>
    <contour>
      <point x="255" y="-10" type="curve" smooth="yes"/>
      <point x="390" y="-10"/>
      <point x="443" y="63"/>
      <point x="443" y="264" type="curve" smooth="yes"/>
      <point x="443" y="690" type="line"/>
      <point x="321" y="690" type="line"/>
      <point x="321" y="179" type="line" smooth="yes"/>
      <point x="321" y="121"/>
      <point x="300" y="96"/>
      <point x="255" y="96" type="curve" smooth="yes"/>
      <point x="209" y="96"/>
      <point x="188" y="121"/>
      <point x="188" y="179" type="curve" smooth="yes"/>
      <point x="188" y="288" type="line"/>
      <point x="67" y="288" type="line"/>
      <point x="67" y="262" type="line" smooth="yes"/>
      <point x="67" y="63"/>
      <point x="120" y="-10"/>
    </contour>
    <contour>
      <point x="39" y="322" type="line"/>
      <point x="216" y="322" type="line"/>
      <point x="216" y="417" type="line"/>
      <point x="183" y="417" type="line"/>
      <point x="183" y="592" type="line"/>
      <point x="216" y="592" type="line"/>
      <point x="216" y="690" type="line"/>
      <point x="39" y="690" type="line"/>
      <point x="39" y="592" type="line"/>
      <point x="72" y="592" type="line"/>
      <point x="72" y="417" type="line"/>
      <point x="39" y="417" type="line"/>
    </contour>
    <contour>
      <point x="266" y="592" type="line"/>
      <point x="408" y="592" type="line"/>
      <point x="408" y="690" type="line"/>
      <point x="266" y="690" type="line"/>
    </contour>
  </outline>
</glyph>
<glyph name="oe" format="1">
  <advance width="682"/>
  <unicode hex="0153"/>
  <note>
oe
</note>
  <outline>
    <contour>
      <point x="212" y="-10" type="curve" smooth="yes"/>
      <point x="275" y="-10"/>
      <point x="319" y="12"/>
      <point x="334" y="56" type="curve"/>
      <point x="358" y="56" type="line"/>
      <point x="373" y="12"/>
      <point x="416" y="-10"/>
      <point x="479" y="-10" type="curve" smooth="yes"/>
      <point x="582" y="-10"/>
      <point x="638" y="45"/>
      <point x="652" y="172" type="curve"/>
      <point x="536" y="172" type="line"/>
      <point x="536" y="146" type="line"/>
      <point x="536" y="116"/>
      <point x="520" y="92"/>
      <point x="479" y="92" type="curve" smooth="yes"/>
      <point x="438" y="92"/>
      <point x="419" y="116"/>
      <point x="419" y="171" type="curve" smooth="yes"/>
      <point x="419" y="366" type="line" smooth="yes"/>
      <point x="419" y="422"/>
      <point x="438" y="446"/>
      <point x="479" y="446" type="curve" smooth="yes"/>
      <point x="521" y="446"/>
      <point x="539" y="422"/>
      <point x="539" y="366" type="curve" smooth="yes"/>
      <point x="539" y="280" type="line"/>
      <point x="581" y="327" type="line"/>
      <point x="365" y="327" type="line"/>
      <point x="365" y="241" type="line"/>
      <point x="656" y="241" type="line"/>
      <point x="656" y="287" type="line" smooth="yes"/>
      <point x="656" y="467"/>
      <point x="600" y="544"/>
      <point x="479" y="544" type="curve" smooth="yes"/>
      <point x="416" y="544"/>
      <point x="373" y="523"/>
      <point x="358" y="478" type="curve"/>
      <point x="334" y="478" type="line"/>
      <point x="319" y="523"/>
      <point x="275" y="544"/>
      <point x="212" y="544" type="curve" smooth="yes"/>
      <point x="84" y="544"/>
      <point x="26" y="461"/>
      <point x="26" y="267" type="curve" smooth="yes"/>
      <point x="26" y="73"/>
      <point x="84" y="-10"/>
    </contour>
    <contour>
      <point x="212" y="92" type="curve" smooth="yes"/>
      <point x="170" y="92"/>
      <point x="151" y="116"/>
      <point x="151" y="171" type="curve" smooth="yes"/>
      <point x="151" y="363" type="line" smooth="yes"/>
      <point x="151" y="418"/>
      <point x="170" y="442"/>
      <point x="212" y="442" type="curve" smooth="yes"/>
      <point x="254" y="442"/>
      <point x="273" y="418"/>
      <point x="273" y="363" type="curve" smooth="yes"/>
      <point x="273" y="171" type="line" smooth="yes"/>
      <point x="273" y="116"/>
      <point x="254" y="92"/>
    </contour>
  </outline>
</glyph>
<glyph name="Ydieresis" format="1">
  <advance width="419"/>
  <unicode hex="0178"/>
  <note>
Ydieresis
</note>
  <outline>
    <component base="Y"/>
    <component base="dieresiscomb.case" xOffset="12" yOffset="40"/>
    <contour>
      <point x="212" y="690" type="move" name="top"/>
    </contour>
  </outline>
</glyph>
<glyph name="florin" format="1">
  <advance width="351"/>
  <unicode hex="0192"/>
  <outline>
    <contour>
      <point x="32" y="0" type="line"/>
      <point x="146" y="0" type="line" smooth="yes"/>
      <point x="198" y="0"/>
      <point x="226" y="28"/>
      <point x="226" y="80" type="curve" smooth="yes"/>
      <point x="226" y="592" type="line"/>
      <point x="323" y="592" type="line"/>
      <point x="323" y="690" type="line"/>
      <point x="188" y="690" type="line" smooth="yes"/>
      <point x="136" y="690"/>
      <point x="108" y="662"/>
      <point x="108" y="610" type="curve" smooth="yes"/>
      <point x="108" y="98" type="line"/>
      <point x="32" y="98" type="line"/>
    </contour>
    <contour>
      <point x="32" y="379" type="line"/>
      <point x="323" y="379" type="line"/>
      <point x="323" y="462" type="line"/>
      <point x="32" y="462" type="line"/>
    </contour>
  </outline>
</glyph>
<glyph name="jdotless" format="1">
  <advance width="207"/>
  <unicode hex="0237"/>
  <outline>
    <contour>
      <point x="6" y="-132" type="line"/>
      <point x="85" y="-132" type="line" smooth="yes"/>
      <point x="137" y="-132"/>
      <point x="165" y="-104"/>
      <point x="165" y="-52" type="curve" smooth="yes"/>
      <point x="165" y="534" type="line"/>
      <point x="10" y="534" type="line"/>
      <point x="10" y="440" type="line"/>
      <point x="47" y="440" type="line"/>
      <point x="47" y="-38" type="line"/>
      <point x="6" y="-38" type="line"/>
    </contour>
    <contour>
      <point x="104" y="534" type="move" name="top"/>
    </contour>
  </outline>
</glyph>
<glyph name="gravecomb" format="1">
  <advance width="0"/>
  <unicode hex="0300"/>
  <note>
grave
</note>
  <outline>
    <contour>
      <point x="165" y="574" type="line"/>
      <point x="249" y="574" type="line"/>
      <point x="217" y="694" type="line"/>
      <point x="87" y="694" type="line"/>
    </contour>
    <contour>
      <point x="200" y="534" type="move" name="_top"/>
    </contour>
  </outline>
</glyph>
<glyph name="tildecomb" format="1">
  <advance width="0"/>
  <unicode hex="0303"/>
  <note>
tilde
</note>
  <outline>
    <contour>
      <point x="252" y="569" type="curve" smooth="yes"/>
      <point x="302" y="569"/>
      <point x="330" y="602"/>
      <point x="330" y="660" type="curve" smooth="yes"/>
      <point x="330" y="693" type="line"/>
      <point x="256" y="693" type="line"/>
      <point x="256" y="664" type="line" smooth="yes"/>
      <point x="256" y="652"/>
      <point x="251" y="646"/>
      <point x="241" y="646" type="curve" smooth="yes"/>
      <point x="213" y="646"/>
      <point x="212" y="698"/>
      <point x="148" y="698" type="curve" smooth="yes"/>
      <point x="98" y="698"/>
      <point x="70" y="666"/>
      <point x="70" y="607" type="curve" smooth="yes"/>
      <point x="70" y="575" type="line"/>
      <point x="144" y="575" type="line"/>
      <point x="144" y="603" type="line" smooth="yes"/>
      <point x="144" y="616"/>
      <point x="149" y="622"/>
      <point x="159" y="622" type="curve" smooth="yes"/>
      <point x="187" y="622"/>
      <point x="188" y="569"/>
    </contour>
    <contour>
      <point x="200" y="534" type="move" name="_top"/>
    </contour>
  </outline>
</glyph>
<glyph name="ringcomb" format="1">
  <advance width="0"/>
  <unicode hex="030A"/>
  <note>
ring
</note>
  <outline>
    <contour>
      <point x="200" y="566" type="curve" smooth="yes"/>
      <point x="256" y="566"/>
      <point x="291" y="599"/>
      <point x="291" y="652" type="curve" smooth="yes"/>
      <point x="291" y="704"/>
      <point x="256" y="737"/>
      <point x="200" y="737" type="curve" smooth="yes"/>
      <point x="144" y="737"/>
      <point x="109" y="704"/>
      <point x="109" y="652" type="curve" smooth="yes"/>
      <point x="109" y="599"/>
      <point x="144" y="566"/>
    </contour>
    <contour>
      <point x="200" y="616" type="curve" smooth="yes"/>
      <point x="181" y="616"/>
      <point x="172" y="626"/>
      <point x="172" y="649" type="curve" smooth="yes"/>
      <point x="172" y="655" type="line" smooth="yes"/>
      <point x="172" y="677"/>
      <point x="181" y="687"/>
      <point x="200" y="687" type="curve" smooth="yes"/>
      <point x="219" y="687"/>
      <point x="228" y="677"/>
      <point x="228" y="655" type="curve" smooth="yes"/>
      <point x="228" y="649" type="line" smooth="yes"/>
      <point x="228" y="626"/>
      <point x="219" y="616"/>
    </contour>
    <contour>
      <point x="200" y="534" type="move" name="_top"/>
    </contour>
  </outline>
</glyph>
<glyph name="caroncomb" format="1">
  <advance width="0"/>
  <unicode hex="030C"/>
  <outline>
    <contour>
      <point x="340" y="694" type="line"/>
      <point x="247" y="694" type="line"/>
      <point x="212" y="656" type="line"/>
      <point x="188" y="656" type="line"/>
      <point x="153" y="694" type="line"/>
      <point x="60" y="694" type="line"/>
      <point x="138" y="574" type="line"/>
      <point x="262" y="574" type="line"/>
    </contour>
    <contour>
      <point x="200" y="534" type="move" name="_top"/>
    </contour>
  </outline>
</glyph>
<glyph name="cedillacomb" format="1">
  <advance width="0"/>
  <unicode hex="0327"/>
  <note>
cedilla
</note>
  <outline>
    <contour>
      <point x="127" y="-167" type="line"/>
      <point x="210" y="-167" type="line" smooth="yes"/>
      <point x="274" y="-167"/>
      <point x="308" y="-143"/>
      <point x="308" y="-94" type="curve" smooth="yes"/>
      <point x="308" y="-51"/>
      <point x="280" y="-28"/>
      <point x="224" y="-28" type="curve" smooth="yes"/>
      <point x="207" y="-28" type="line"/>
      <point x="244" y="-54" type="line"/>
      <point x="244" y="10" type="line"/>
      <point x="156" y="10" type="line"/>
      <point x="156" y="-56" type="line"/>
      <point x="187" y="-56" type="line" smooth="yes"/>
      <point x="204" y="-56"/>
      <point x="212" y="-63"/>
      <point x="212" y="-76" type="curve" smooth="yes"/>
      <point x="212" y="-90"/>
      <point x="204" y="-97"/>
      <point x="187" y="-97" type="curve" smooth="yes"/>
      <point x="127" y="-97" type="line"/>
    </contour>
    <contour>
      <point x="200" y="0" type="move" name="_bottom"/>
    </contour>
  </outline>
</glyph>
<glyph name="quoteleft" format="1">
  <advance width="188"/>
  <unicode hex="2018"/>
  <outline>
    <contour>
      <point x="156" y="690" type="line"/>
      <point x="95" y="690" type="line"/>
      <point x="29" y="597" type="line"/>
      <point x="29" y="472" type="line"/>
      <point x="156" y="472" type="line"/>
      <point x="156" y="597" type="line"/>
      <point x="94" y="597" type="line"/>
    </contour>
  </outline>
</glyph>
<glyph name="quotedblleft" format="1">
  <advance width="331"/>
  <unicode hex="201C"/>
  <outline>
    <contour>
      <point x="306" y="690" type="line"/>
      <point x="245" y="690" type="line"/>
      <point x="179" y="597" type="line"/>
      <point x="179" y="472" type="line"/>
      <point x="306" y="472" type="line"/>
      <point x="306" y="597" type="line"/>
      <point x="244" y="597" type="line"/>
    </contour>
    <contour>
      <point x="151" y="690" type="line"/>
      <point x="90" y="690" type="line"/>
      <point x="24" y="597" type="line"/>
      <point x="24" y="472" type="line"/>
      <point x="151" y="472" type="line"/>
      <point x="151" y="597" type="line"/>
      <point x="89" y="597" type="line"/>
    </contour>
  </outline>
</glyph>
<glyph name="dagger" format="1">
  <advance width="362"/>
  <unicode hex="2020"/>
  <outline>
    <contour>
      <point x="15" y="441" type="line"/>
      <point x="347" y="441" type="line"/>
      <point x="347" y="529" type="line"/>
      <point x="287" y="529" type="line"/>
      <point x="214" y="485" type="line"/>
      <point x="207" y="491" type="line"/>
      <point x="232" y="583" type="line"/>
      <point x="232" y="690" type="line"/>
      <point x="130" y="690" type="line"/>
      <point x="130" y="583" type="line"/>
      <point x="155" y="491" type="line"/>
      <point x="148" y="485" type="line"/>
      <point x="75" y="529" type="line"/>
      <point x="15" y="529" type="line"/>
    </contour>
    <contour>
      <point x="151" y="0" type="line"/>
      <point x="211" y="0" type="line"/>
      <point x="240" y="332" type="line"/>
      <point x="211" y="455" type="line"/>
      <point x="151" y="455" type="line"/>
      <point x="123" y="332" type="line"/>
    </contour>
  </outline>
</glyph>
<glyph name="perthousand" format="1">
  <advance width="925"/>
  <unicode hex="2030"/>
  <outline>
    <contour>
      <point x="39" y="0" type="line"/>
      <point x="145" y="0" type="line"/>
      <point x="302" y="322" type="line"/>
      <point x="196" y="322" type="line"/>
    </contour>
    <contour>
      <point x="306" y="368" type="line"/>
      <point x="414" y="368" type="line"/>
      <point x="570" y="690" type="line"/>
      <point x="463" y="690" type="line"/>
    </contour>
    <contour>
      <point x="170" y="360" type="curve" smooth="yes"/>
      <point x="276" y="360"/>
      <point x="318" y="436"/>
      <point x="318" y="530" type="curve" smooth="yes"/>
      <point x="318" y="624"/>
      <point x="276" y="700"/>
      <point x="170" y="700" type="curve" smooth="yes"/>
      <point x="64" y="700"/>
      <point x="22" y="624"/>
      <point x="22" y="530" type="curve" smooth="yes"/>
      <point x="22" y="436"/>
      <point x="64" y="360"/>
    </contour>
    <contour>
      <point x="170" y="434" type="curve" smooth="yes"/>
      <point x="137" y="434"/>
      <point x="122" y="454"/>
      <point x="122" y="488" type="curve" smooth="yes"/>
      <point x="122" y="572" type="line" smooth="yes"/>
      <point x="122" y="606"/>
      <point x="137" y="626"/>
      <point x="170" y="626" type="curve" smooth="yes"/>
      <point x="204" y="626"/>
      <point x="219" y="606"/>
      <point x="219" y="572" type="curve" smooth="yes"/>
      <point x="219" y="488" type="line" smooth="yes"/>
      <point x="219" y="454"/>
      <point x="204" y="434"/>
    </contour>
    <contour>
      <point x="438" y="-10" type="curve" smooth="yes"/>
      <point x="545" y="-10"/>
      <point x="586" y="66"/>
      <point x="586" y="160" type="curve" smooth="yes"/>
      <point x="586" y="254"/>
      <point x="545" y="330"/>
      <point x="438" y="330" type="curve" smooth="yes"/>
      <point x="332" y="330"/>
      <point x="291" y="254"/>
      <point x="291" y="160" type="curve" smooth="yes"/>
      <point x="291" y="66"/>
      <point x="332" y="-10"/>
    </contour>
    <contour>
      <point x="438" y="64" type="curve" smooth="yes"/>
      <point x="405" y="64"/>
      <point x="390" y="84"/>
      <point x="390" y="118" type="curve" smooth="yes"/>
      <point x="390" y="202" type="line" smooth="yes"/>
      <point x="390" y="236"/>
      <point x="405" y="256"/>
      <point x="438" y="256" type="curve" smooth="yes"/>
      <point x="472" y="256"/>
      <point x="487" y="236"/>
      <point x="487" y="202" type="curve" smooth="yes"/>
      <point x="487" y="118" type="line" smooth="yes"/>
      <point x="487" y="84"/>
      <point x="472" y="64"/>
    </contour>
    <contour>
      <point x="762" y="-10" type="curve" smooth="yes"/>
      <point x="868" y="-10"/>
      <point x="910" y="66"/>
      <point x="910" y="160" type="curve" smooth="yes"/>
      <point x="910" y="254"/>
      <point x="868" y="330"/>
      <point x="762" y="330" type="curve" smooth="yes"/>
      <point x="656" y="330"/>
      <point x="614" y="254"/>
      <point x="614" y="160" type="curve" smooth="yes"/>
      <point x="614" y="66"/>
      <point x="656" y="-10"/>
    </contour>
    <contour>
      <point x="762" y="64" type="curve" smooth="yes"/>
      <point x="729" y="64"/>
      <point x="713" y="84"/>
      <point x="713" y="118" type="curve" smooth="yes"/>
      <point x="713" y="202" type="line" smooth="yes"/>
      <point x="713" y="236"/>
      <point x="729" y="256"/>
      <point x="762" y="256" type="curve" smooth="yes"/>
      <point x="795" y="256"/>
      <point x="810" y="236"/>
      <point x="810" y="202" type="curve" smooth="yes"/>
      <point x="810" y="118" type="line" smooth="yes"/>
      <point x="810" y="84"/>
      <point x="795" y="64"/>
    </contour>
  </outline>
</glyph>
<glyph name="fraction" format="1">
  <advance width="25"/>
  <unicode hex="2044"/>
  <note>
fraction
</note>
  <outline>
    <contour>
      <point x="-217" y="0" type="line"/>
      <point x="-124" y="0" type="line"/>
      <point x="3" y="322" type="line"/>
      <point x="-89" y="322" type="line"/>
    </contour>
    <contour>
      <point x="22" y="368" type="line"/>
      <point x="114" y="368" type="line"/>
      <point x="241" y="690" type="line"/>
      <point x="149" y="690" type="line"/>
    </contour>
  </outline>
</glyph>
<glyph name="euro" format="1">
  <advance width="495"/>
  <unicode hex="20AC"/>
  <outline>
    <contour>
      <point x="277" y="-10" type="curve" smooth="yes"/>
      <point x="395" y="-10"/>
      <point x="455" y="56"/>
      <point x="468" y="228" type="curve"/>
      <point x="347" y="228" type="line"/>
      <point x="347" y="169" type="line" smooth="yes"/>
      <point x="347" y="126"/>
      <point x="325" y="96"/>
      <point x="277" y="96" type="curve" smooth="yes"/>
      <point x="229" y="96"/>
      <point x="205" y="125"/>
      <point x="205" y="192" type="curve" smooth="yes"/>
      <point x="205" y="498" type="line" smooth="yes"/>
      <point x="205" y="565"/>
      <point x="229" y="594"/>
      <point x="277" y="594" type="curve" smooth="yes"/>
      <point x="325" y="594"/>
      <point x="347" y="564"/>
      <point x="347" y="526" type="curve" smooth="yes"/>
      <point x="347" y="478" type="line"/>
      <point x="467" y="478" type="line"/>
      <point x="451" y="638"/>
      <point x="391" y="700"/>
      <point x="277" y="700" type="curve" smooth="yes"/>
      <point x="136" y="700"/>
      <point x="77" y="610"/>
      <point x="77" y="345" type="curve" smooth="yes"/>
      <point x="77" y="80"/>
      <point x="136" y="-10"/>
    </contour>
    <contour>
      <point x="36" y="258" type="line"/>
      <point x="339" y="258" type="line"/>
      <point x="339" y="335" type="line"/>
      <point x="36" y="335" type="line"/>
    </contour>
    <contour>
      <point x="36" y="369" type="line"/>
      <point x="339" y="369" type="line"/>
      <point x="339" y="446" type="line"/>
      <point x="36" y="446" type="line"/>
    </contour>
  </outline>
</glyph>
<glyph name="trademark" format="1">
  <advance width="722"/>
  <unicode hex="2122"/>
  <outline>
    <contour>
      <point x="121" y="304" type="line"/>
      <point x="197" y="304" type="line"/>
      <point x="197" y="629" type="line"/>
      <point x="230" y="629" type="line"/>
      <point x="230" y="562" type="line"/>
      <point x="292" y="562" type="line"/>
      <point x="292" y="690" type="line"/>
      <point x="26" y="690" type="line"/>
      <point x="26" y="562" type="line"/>
      <point x="89" y="562" type="line"/>
      <point x="89" y="629" type="line"/>
      <point x="121" y="629" type="line"/>
    </contour>
    <contour>
      <point x="319" y="304" type="line"/>
      <point x="395" y="304" type="line"/>
      <point x="395" y="619" type="line"/>
      <point x="410" y="619" type="line"/>
      <point x="460" y="304" type="line"/>
      <point x="527" y="304" type="line"/>
      <point x="578" y="619" type="line"/>
      <point x="593" y="619" type="line"/>
      <point x="593" y="304" type="line"/>
      <point x="671" y="304" type="line"/>
      <point x="671" y="690" type="line"/>
      <point x="536" y="690" type="line"/>
      <point x="503" y="481" type="line"/>
      <point x="488" y="481" type="line"/>
      <point x="454" y="690" type="line"/>
      <point x="319" y="690" type="line"/>
    </contour>
  </outline>
</glyph>
<glyph name="Ohm" format="1">
  <advance width="498"/>
  <unicode hex="2126"/>
  <outline>
    <contour>
      <point x="29" y="0" type="line"/>
      <point x="221" y="0" type="line"/>
      <point x="221" y="100" type="line"/>
      <point x="188" y="138"/>
      <point x="164" y="196"/>
      <point x="164" y="261" type="curve" smooth="yes"/>
      <point x="164" y="494" type="line" smooth="yes"/>
      <point x="164" y="563"/>
      <point x="199" y="594"/>
      <point x="249" y="594" type="curve" smooth="yes"/>
      <point x="298" y="594"/>
      <point x="333" y="563"/>
      <point x="333" y="494" type="curve" smooth="yes"/>
      <point x="333" y="261" type="line" smooth="yes"/>
      <point x="333" y="196"/>
      <point x="309" y="138"/>
      <point x="277" y="100" type="curve"/>
      <point x="277" y="0" type="line"/>
      <point x="468" y="0" type="line"/>
      <point x="468" y="95" type="line"/>
      <point x="355" y="95" type="line"/>
      <point x="355" y="119" type="line"/>
      <point x="426" y="181"/>
      <point x="462" y="262"/>
      <point x="462" y="397" type="curve" smooth="yes"/>
      <point x="462" y="608"/>
      <point x="390" y="700"/>
      <point x="249" y="700" type="curve" smooth="yes"/>
      <point x="107" y="700"/>
      <point x="36" y="608"/>
      <point x="36" y="397" type="curve" smooth="yes"/>
      <point x="36" y="262"/>
      <point x="71" y="181"/>
      <point x="142" y="119" type="curve"/>
      <point x="142" y="95" type="line"/>
      <point x="29" y="95" type="line"/>
    </contour>
  </outline>
</glyph>
<glyph name="partialdiff" format="1">
  <advance width="427"/>
  <unicode hex="2202"/>
  <outline>
    <contour>
      <point x="212" y="-10" type="curve" smooth="yes"/>
      <point x="339" y="-10"/>
      <point x="397" y="74"/>
      <point x="397" y="272" type="curve" smooth="yes"/>
      <point x="397" y="520"/>
      <point x="299" y="675"/>
      <point x="103" y="693" type="curve"/>
      <point x="103" y="587" type="line"/>
      <point x="217" y="576"/>
      <point x="277" y="477"/>
      <point x="283" y="413" type="curve"/>
      <point x="260" y="413" type="line"/>
      <point x="247" y="468"/>
      <point x="213" y="501"/>
      <point x="164" y="501" type="curve" smooth="yes"/>
      <point x="74" y="501"/>
      <point x="27" y="409"/>
      <point x="27" y="247" type="curve" smooth="yes"/>
      <point x="27" y="74"/>
      <point x="85" y="-10"/>
    </contour>
    <contour>
      <point x="212" y="92" type="curve" smooth="yes"/>
      <point x="171" y="92"/>
      <point x="152" y="115"/>
      <point x="152" y="166" type="curve" smooth="yes"/>
      <point x="152" y="326" type="line" smooth="yes"/>
      <point x="152" y="377"/>
      <point x="171" y="401"/>
      <point x="212" y="401" type="curve" smooth="yes"/>
      <point x="254" y="401"/>
      <point x="272" y="377"/>
      <point x="272" y="326" type="curve" smooth="yes"/>
      <point x="272" y="166" type="line" smooth="yes"/>
      <point x="272" y="115"/>
      <point x="254" y="92"/>
    </contour>
  </outline>
</glyph>
<glyph name="product" format="1">
  <advance width="518"/>
  <unicode hex="220F"/>
  <outline>
    <contour>
      <point x="322" y="0" type="line"/>
      <point x="443" y="0" type="line"/>
      <point x="443" y="592" type="line"/>
      <point x="500" y="592" type="line"/>
      <point x="500" y="690" type="line"/>
      <point x="19" y="690" type="line"/>
      <point x="19" y="592" type="line"/>
      <point x="75" y="592" type="line"/>
      <point x="75" y="0" type="line"/>
      <point x="196" y="0" type="line"/>
      <point x="196" y="592" type="line"/>
      <point x="322" y="592" type="line"/>
    </contour>
  </outline>
</glyph>
<glyph name="minus" format="1">
  <advance width="384"/>
  <unicode hex="2212"/>
  <outline>
    <contour>
      <point x="22" y="290" type="line"/>
      <point x="361" y="290" type="line"/>
      <point x="361" y="384" type="line"/>
      <point x="22" y="384" type="line"/>
    </contour>
  </outline>
</glyph>
<glyph name="notequal" format="1">
  <advance width="384"/>
  <unicode hex="2260"/>
  <outline>
    <contour>
      <point x="84" y="159" type="line"/>
      <point x="169" y="159" type="line"/>
      <point x="300" y="515" type="line"/>
      <point x="215" y="515" type="line"/>
    </contour>
    <contour>
      <point x="22" y="363" type="line"/>
      <point x="361" y="363" type="line"/>
      <point x="361" y="457" type="line"/>
      <point x="22" y="457" type="line"/>
    </contour>
    <contour>
      <point x="22" y="217" type="line"/>
      <point x="361" y="217" type="line"/>
      <point x="361" y="311" type="line"/>
      <point x="22" y="311" type="line"/>
    </contour>
  </outline>
</glyph>
<glyph name="greaterequal" format="1">
  <advance width="384"/>
  <unicode hex="2265"/>
  <outline>
    <contour>
      <point x="24" y="170" type="line"/>
      <point x="362" y="288" type="line"/>
      <point x="362" y="413" type="line"/>
      <point x="24" y="531" type="line"/>
      <point x="24" y="431" type="line"/>
      <point x="258" y="362" type="line"/>
      <point x="258" y="338" type="line"/>
      <point x="24" y="270" type="line"/>
    </contour>
    <contour>
      <point x="24" y="35" type="line"/>
      <point x="362" y="35" type="line"/>
      <point x="362" y="129" type="line"/>
      <point x="24" y="129" type="line"/>
    </contour>
  </outline>
</glyph>
<glyph name="lozenge" format="1">
  <advance width="459"/>
  <unicode hex="25CA"/>
  <outline>
    <contour>
      <point x="173" y="0" type="line"/>
      <point x="287" y="0" type="line"/>
      <point x="433" y="345" type="line"/>
      <point x="287" y="690" type="line"/>
      <point x="173" y="690" type="line"/>
      <point x="26" y="345" type="line"/>
    </contour>
    <contour>
      <point x="218" y="134" type="line"/>
      <point x="137" y="345" type="line"/>
      <point x="218" y="556" type="line"/>
      <point x="241" y="556" type="line"/>
      <point x="329" y="345" type="line"/>
      <point x="241" y="134" type="line"/>
    </contour>
  </outline>
</glyph>
<glyph name="dragon" format="1">
  <advance width="600"/>
  <unicode hex="1F409"/>
  <outline>
    <contour>
      <point x="335" y="387" type="line"/>
      <point x="595" y="387" type="line"/>
      <point x="595" y="477" type="line"/>
      <point x="487" y="514" type="line"/>
      <point x="487" y="527" type="line"/>
      <point x="595" y="562" type="line"/>
      <point x="595" y="650" type="line"/>
      <point x="385" y="650" type="line"/>
      <point x="385" y="602" type="line"/>
      <point x="547" y="602" type="line"/>
      <point x="547" y="589" type="line"/>
      <point x="411" y="542" type="line"/>
      <point x="411" y="497" type="line"/>
      <point x="547" y="449" type="line"/>
      <point x="547" y="438" type="line"/>
      <point x="335" y="438" type="line"/>
    </contour>
    <contour>
      <point x="10" y="36" type="curve"/>
      <point x="10" y="-20" type="line"/>
      <point x="159" y="-20"/>
      <point x="288" y="34"/>
      <point x="288" y="198" type="curve"/>
      <point x="234" y="198" type="line"/>
      <point x="234" y="74"/>
      <point x="134" y="36"/>
    </contour>
    <contour>
      <point x="278" y="0" type="line"/>
      <point x="578" y="0" type="line"/>
      <point x="578" y="50" type="line"/>
      <point x="278" y="50" type="line"/>
    </contour>
    <contour>
      <point x="234" y="198" type="line"/>
      <point x="288" y="198" type="line"/>
      <point x="288" y="333" type="line"/>
      <point x="234" y="333" type="line"/>
    </contour>
    <contour>
      <point x="338" y="149" type="line"/>
      <point x="453" y="149" type="line"/>
      <point x="453" y="199" type="line"/>
      <point x="338" y="199" type="line"/>
    </contour>
    <contour>
      <point x="234" y="333" type="line"/>
      <point x="288" y="333" type="line"/>
      <point x="288" y="387" type="line"/>
      <point x="234" y="387" type="line"/>
    </contour>
    <contour>
      <point x="453" y="149" type="line"/>
      <point x="503" y="149" type="line"/>
      <point x="503" y="199" type="line"/>
      <point x="453" y="199" type="line"/>
    </contour>
    <contour>
      <point x="338" y="235" type="line"/>
      <point x="453" y="235" type="line"/>
      <point x="453" y="285" type="line"/>
      <point x="338" y="285" type="line"/>
    </contour>
    <contour>
      <point x="234" y="387" type="line"/>
      <point x="288" y="387" type="line"/>
      <point x="288" y="562" type="line"/>
      <point x="234" y="562" type="line"/>
    </contour>
    <contour>
      <point x="453" y="235" type="line"/>
      <point x="503" y="235" type="line"/>
      <point x="503" y="285" type="line"/>
      <point x="453" y="285" type="line"/>
    </contour>
    <contour>
      <point x="234" y="562" type="line"/>
      <point x="288" y="562" type="line"/>
      <point x="288" y="650" type="line"/>
      <point x="234" y="650" type="line"/>
    </contour>
    <contour>
      <point x="335" y="551" type="line"/>
      <point x="385" y="551" type="line"/>
      <point x="385" y="602" type="line"/>
      <point x="335" y="602" type="line"/>
    </contour>
    <contour>
      <point x="439" y="531" type="line"/>
      <point x="478" y="494" type="line"/>
      <point x="478" y="494" type="line"/>
      <point x="439" y="531" type="line"/>
    </contour>
    <contour>
      <point x="478" y="624" type="line"/>
      <point x="532" y="624" type="line"/>
      <point x="532" y="624" type="line"/>
      <point x="478" y="624" type="line"/>
    </contour>
    <contour>
      <point x="580" y="464" type="line"/>
      <point x="580" y="410" type="line"/>
      <point x="580" y="410" type="line"/>
      <point x="580" y="464" type="line"/>
    </contour>
  </outline>
</glyph>
<glyph name="A.ss03" format="1">
  <advance width="434"/>
  <outline>
    <contour>
      <point x="15" y="0" type="line"/>
      <point x="134" y="0" type="line"/>
      <point x="203" y="577" type="line"/>
      <point x="226" y="577" type="line"/>
      <point x="295" y="0" type="line"/>
      <point x="419" y="0" type="line"/>
      <point x="326" y="690" type="line"/>
      <point x="108" y="690" type="line"/>
    </contour>
    <contour>
      <point x="86" y="158" type="line"/>
      <point x="341" y="158" type="line"/>
      <point x="341" y="250" type="line"/>
      <point x="87" y="250" type="line"/>
    </contour>
    <contour>
      <point x="419" y="0" type="move" name="ogonek"/>
    </contour>
    <contour>
      <point x="215" y="690" type="move" name="top"/>
    </contour>
  </outline>
</glyph>
<glyph name="B.ss03" format="1">
  <advance width="450"/>
  <outline>
    <contour>
      <point x="48" y="0" type="line"/>
      <point x="252" y="0" type="line" smooth="yes"/>
      <point x="366" y="0"/>
      <point x="421" y="61"/>
      <point x="421" y="193" type="curve" smooth="yes"/>
      <point x="421" y="294"/>
      <point x="382" y="338"/>
      <point x="306" y="340" type="curve"/>
      <point x="306" y="364" type="line"/>
      <point x="376" y="366"/>
      <point x="415" y="407"/>
      <point x="415" y="504" type="curve" smooth="yes"/>
      <point x="415" y="632"/>
      <point x="361" y="690"/>
      <point x="249" y="690" type="curve"/>
      <point x="48" y="690" type="line"/>
    </contour>
    <contour>
      <point x="244" y="98" type="curve" smooth="yes"/>
      <point x="169" y="98" type="line"/>
      <point x="169" y="307" type="line"/>
      <point x="244" y="307" type="line" smooth="yes"/>
      <point x="280" y="307"/>
      <point x="296" y="288"/>
      <point x="296" y="247" type="curve" smooth="yes"/>
      <point x="296" y="158" type="line" smooth="yes"/>
      <point x="296" y="117"/>
      <point x="280" y="98"/>
    </contour>
    <contour>
      <point x="241" y="397" type="curve" smooth="yes"/>
      <point x="169" y="397" type="line"/>
      <point x="169" y="592" type="line"/>
      <point x="241" y="592" type="line" smooth="yes"/>
      <point x="276" y="592"/>
      <point x="291" y="573"/>
      <point x="291" y="534" type="curve" smooth="yes"/>
      <point x="291" y="456" type="line" smooth="yes"/>
      <point x="291" y="416"/>
      <point x="276" y="397"/>
    </contour>
  </outline>
</glyph>
<glyph name="E.ss03" format="1">
  <advance width="422"/>
  <outline>
    <contour>
      <point x="285" y="483" type="line"/>
      <point x="388" y="483" type="line"/>
      <point x="388" y="690" type="line"/>
      <point x="49" y="690" type="line"/>
      <point x="49" y="0" type="line"/>
      <point x="392" y="0" type="line"/>
      <point x="392" y="211" type="line"/>
      <point x="289" y="211" type="line"/>
      <point x="289" y="98" type="line"/>
      <point x="170" y="98" type="line"/>
      <point x="170" y="307" type="line"/>
      <point x="309" y="307" type="line"/>
      <point x="309" y="397" type="line"/>
      <point x="170" y="397" type="line"/>
      <point x="170" y="592" type="line"/>
      <point x="285" y="592" type="line"/>
    </contour>
    <contour>
      <point x="392" y="0" type="move" name="ogonek"/>
    </contour>
    <contour>
      <point x="211" y="690" type="move" name="top"/>
    </contour>
  </outline>
</glyph>
<glyph name="Germandbls.ss03" format="1">
  <advance width="456"/>
  <outline>
    <contour>
      <point x="47" y="0" type="line"/>
      <point x="168" y="0" type="line"/>
      <point x="168" y="592" type="line"/>
      <point x="294" y="592" type="line"/>
      <point x="221" y="406" type="line"/>
      <point x="221" y="315" type="line"/>
      <point x="244" y="315" type="line" smooth="yes"/>
      <point x="284" y="315"/>
      <point x="302" y="296"/>
      <point x="302" y="254" type="curve" smooth="yes"/>
      <point x="302" y="159" type="line" smooth="yes"/>
      <point x="302" y="117"/>
      <point x="284" y="98"/>
      <point x="244" y="98" type="curve" smooth="yes"/>
      <point x="204" y="98" type="line"/>
      <point x="204" y="0" type="line"/>
      <point x="252" y="0" type="line" smooth="yes"/>
      <point x="371" y="0"/>
      <point x="427" y="61"/>
      <point x="427" y="201" type="curve" smooth="yes"/>
      <point x="427" y="333"/>
      <point x="378" y="403"/>
      <point x="285" y="403" type="curve" smooth="yes"/>
      <point x="258" y="403" type="line"/>
      <point x="319" y="355" type="line"/>
      <point x="415" y="592" type="line"/>
      <point x="415" y="690" type="line"/>
      <point x="47" y="690" type="line"/>
    </contour>
  </outline>
</glyph>
<glyph name="H.ss03" format="1">
  <advance width="473"/>
  <outline>
    <contour>
      <point x="303" y="0" type="line"/>
      <point x="424" y="0" type="line"/>
      <point x="424" y="690" type="line"/>
      <point x="303" y="690" type="line"/>
    </contour>
    <contour>
      <point x="49" y="0" type="line"/>
      <point x="170" y="0" type="line"/>
      <point x="170" y="690" type="line"/>
      <point x="49" y="690" type="line"/>
    </contour>
    <contour>
      <point x="99" y="305" type="line"/>
      <point x="364" y="305" type="line"/>
      <point x="364" y="399" type="line"/>
      <point x="99" y="399" type="line"/>
    </contour>
  </outline>
</glyph>
<glyph name="K.ss03" format="1">
  <advance width="458"/>
  <outline>
    <contour>
      <point x="48" y="0" type="line"/>
      <point x="169" y="0" type="line"/>
      <point x="169" y="307" type="line"/>
      <point x="212" y="307" type="line"/>
      <point x="315" y="0" type="line"/>
      <point x="452" y="0" type="line"/>
      <point x="452" y="97" type="line"/>
      <point x="412" y="97" type="line"/>
      <point x="309" y="388" type="line"/>
      <point x="305" y="333" type="line"/>
      <point x="446" y="690" type="line"/>
      <point x="319" y="690" type="line"/>
      <point x="212" y="401" type="line"/>
      <point x="169" y="401" type="line"/>
      <point x="169" y="690" type="line"/>
      <point x="48" y="690" type="line"/>
    </contour>
  </outline>
</glyph>
<glyph name="L.ss03" format="1">
  <advance width="402"/>
  <outline>
    <contour>
      <point x="49" y="0" type="line"/>
      <point x="382" y="0" type="line"/>
      <point x="382" y="211" type="line"/>
      <point x="279" y="211" type="line"/>
      <point x="279" y="98" type="line"/>
      <point x="170" y="98" type="line"/>
      <point x="170" y="690" type="line"/>
      <point x="49" y="690" type="line"/>
    </contour>
    <contour>
      <point x="154" y="690" type="line"/>
      <point x="154" y="592" type="line"/>
      <point x="210" y="592" type="line"/>
      <point x="210" y="690" type="line"/>
    </contour>
  </outline>
</glyph>
<glyph name="M.ss04" format="1">
  <advance width="674"/>
  <outline>
    <contour>
      <point x="54" y="0" type="line"/>
      <point x="172" y="0" type="line"/>
      <point x="172" y="577" type="line"/>
      <point x="195" y="577" type="line"/>
      <point x="286" y="0" type="line"/>
      <point x="390" y="0" type="line"/>
      <point x="480" y="577" type="line"/>
      <point x="504" y="577" type="line"/>
      <point x="504" y="0" type="line"/>
      <point x="625" y="0" type="line"/>
      <point x="625" y="690" type="line"/>
      <point x="414" y="690" type="line"/>
      <point x="351" y="284" type="line"/>
      <point x="328" y="284" type="line"/>
      <point x="265" y="690" type="line"/>
      <point x="54" y="690" type="line"/>
    </contour>
    <contour>
      <point x="73" y="592" type="line"/>
      <point x="73" y="690" type="line"/>
      <point x="14" y="690" type="line"/>
      <point x="14" y="592" type="line"/>
    </contour>
  </outline>
</glyph>
<glyph name="N.ss03" format="1">
  <advance width="483"/>
  <outline>
    <contour>
      <point x="49" y="0" type="line"/>
      <point x="166" y="0" type="line"/>
      <point x="166" y="357" type="line" smooth="yes"/>
      <point x="166" y="388"/>
      <point x="163" y="420"/>
      <point x="156" y="483" type="curve"/>
      <point x="180" y="483" type="line"/>
      <point x="322" y="0" type="line"/>
      <point x="434" y="0" type="line"/>
      <point x="434" y="690" type="line"/>
      <point x="317" y="690" type="line"/>
      <point x="317" y="473" type="line" smooth="yes"/>
      <point x="317" y="442"/>
      <point x="320" y="410"/>
      <point x="327" y="347" type="curve"/>
      <point x="303" y="347" type="line"/>
      <point x="194" y="690" type="line"/>
      <point x="49" y="690" type="line"/>
    </contour>
    <contour>
      <point x="241" y="690" type="move" name="top"/>
    </contour>
  </outline>
</glyph>
<glyph name="P.ss03" format="1">
  <advance width="437"/>
  <outline>
    <contour>
      <point x="48" y="0" type="line"/>
      <point x="169" y="0" type="line"/>
      <point x="169" y="284" type="line"/>
      <point x="253" y="284" type="line" smooth="yes"/>
      <point x="367" y="284"/>
      <point x="420" y="346"/>
      <point x="420" y="484" type="curve" smooth="yes"/>
      <point x="420" y="627"/>
      <point x="367" y="690"/>
      <point x="250" y="690" type="curve" smooth="yes"/>
      <point x="48" y="690" type="line"/>
    </contour>
    <contour>
      <point x="242" y="375" type="curve" smooth="yes"/>
      <point x="169" y="375" type="line"/>
      <point x="169" y="592" type="line"/>
      <point x="242" y="592" type="line" smooth="yes"/>
      <point x="279" y="592"/>
      <point x="295" y="572"/>
      <point x="295" y="531" type="curve" smooth="yes"/>
      <point x="295" y="436" type="line" smooth="yes"/>
      <point x="295" y="395"/>
      <point x="279" y="375"/>
    </contour>
  </outline>
</glyph>
<glyph name="R.ss03" format="1">
  <advance width="461"/>
  <outline>
    <contour>
      <point x="49" y="0" type="line"/>
      <point x="170" y="0" type="line"/>
      <point x="170" y="304" type="line"/>
      <point x="237" y="304" type="line" smooth="yes"/>
      <point x="272" y="304"/>
      <point x="288" y="286"/>
      <point x="288" y="245" type="curve" smooth="yes"/>
      <point x="288" y="0" type="line"/>
      <point x="447" y="0" type="line"/>
      <point x="447" y="98" type="line"/>
      <point x="406" y="98" type="line"/>
      <point x="406" y="213" type="line" smooth="yes"/>
      <point x="406" y="303"/>
      <point x="376" y="335"/>
      <point x="301" y="337" type="curve"/>
      <point x="301" y="361" type="line"/>
      <point x="385" y="363"/>
      <point x="422" y="405"/>
      <point x="422" y="503" type="curve" smooth="yes"/>
      <point x="422" y="632"/>
      <point x="367" y="690"/>
      <point x="253" y="690" type="curve"/>
      <point x="49" y="690" type="line"/>
    </contour>
    <contour>
      <point x="245" y="395" type="curve" smooth="yes"/>
      <point x="170" y="395" type="line"/>
      <point x="170" y="592" type="line"/>
      <point x="245" y="592" type="line" smooth="yes"/>
      <point x="280" y="592"/>
      <point x="296" y="573"/>
      <point x="296" y="533" type="curve" smooth="yes"/>
      <point x="296" y="454" type="line" smooth="yes"/>
      <point x="296" y="414"/>
      <point x="280" y="395"/>
    </contour>
  </outline>
</glyph>
<glyph name="Thorn.ss03" format="1">
  <advance width="444"/>
  <note>
Thorn
</note>
  <outline>
    <contour>
      <point x="118" y="153" type="line"/>
      <point x="254" y="153" type="line" smooth="yes"/>
      <point x="368" y="153"/>
      <point x="421" y="214"/>
      <point x="421" y="352" type="curve" smooth="yes"/>
      <point x="421" y="494"/>
      <point x="367" y="551"/>
      <point x="251" y="551" type="curve" smooth="yes"/>
      <point x="118" y="551" type="line"/>
      <point x="118" y="460" type="line"/>
      <point x="242" y="460" type="line" smooth="yes"/>
      <point x="279" y="460"/>
      <point x="296" y="441"/>
      <point x="296" y="399" type="curve" smooth="yes"/>
      <point x="296" y="305" type="line" smooth="yes"/>
      <point x="296" y="263"/>
      <point x="279" y="244"/>
      <point x="242" y="244" type="curve" smooth="yes"/>
      <point x="118" y="244" type="line"/>
    </contour>
    <contour>
      <point x="49" y="0" type="line"/>
      <point x="170" y="0" type="line"/>
      <point x="170" y="690" type="line"/>
      <point x="49" y="690" type="line"/>
    </contour>
  </outline>
</glyph>
<glyph name="U.ss03" format="1">
  <advance width="478"/>
  <outline>
    <contour>
      <point x="178" y="-10" type="curve" smooth="yes"/>
      <point x="250" y="-10"/>
      <point x="290" y="29"/>
      <point x="298" y="105" type="curve"/>
      <point x="322" y="105" type="line"/>
      <point x="322" y="80" type="line" smooth="yes"/>
      <point x="322" y="28"/>
      <point x="350" y="0"/>
      <point x="402" y="0" type="curve" smooth="yes"/>
      <point x="465" y="0" type="line"/>
      <point x="465" y="98" type="line"/>
      <point x="424" y="98" type="line"/>
      <point x="424" y="690" type="line"/>
      <point x="303" y="690" type="line"/>
      <point x="303" y="180" type="line" smooth="yes"/>
      <point x="303" y="122"/>
      <point x="282" y="96"/>
      <point x="235" y="96" type="curve" smooth="yes"/>
      <point x="188" y="96"/>
      <point x="167" y="122"/>
      <point x="167" y="180" type="curve" smooth="yes"/>
      <point x="167" y="690" type="line"/>
      <point x="46" y="690" type="line"/>
      <point x="46" y="157" type="line" smooth="yes"/>
      <point x="46" y="48"/>
      <point x="92" y="-10"/>
    </contour>
    <contour>
      <point x="235" y="690" type="move" name="top"/>
    </contour>
  </outline>
</glyph>
<glyph name=".notdef" format="1">
  <advance width="461"/>
  <outline>
    <contour>
      <point x="53" y="0" type="line"/>
      <point x="408" y="0" type="line"/>
      <point x="408" y="690" type="line"/>
      <point x="53" y="690" type="line"/>
    </contour>
    <contour>
      <point x="152" y="94" type="line"/>
      <point x="152" y="596" type="line"/>
      <point x="309" y="596" type="line"/>
      <point x="309" y="94" type="line"/>
    </contour>
  </outline>
</glyph>
<glyph name="a.ss01" format="1">
  <advance width="444"/>
  <outline>
    <contour>
      <point x="163" y="-10" type="curve" smooth="yes"/>
      <point x="221" y="-10"/>
      <point x="258" y="29"/>
      <point x="265" y="98" type="curve"/>
      <point x="289" y="98" type="line"/>
      <point x="289" y="80" type="line" smooth="yes"/>
      <point x="289" y="28"/>
      <point x="317" y="0"/>
      <point x="369" y="0" type="curve" smooth="yes"/>
      <point x="423" y="0" type="line"/>
      <point x="423" y="94" type="line"/>
      <point x="387" y="94" type="line"/>
      <point x="387" y="440" type="line"/>
      <point x="423" y="440" type="line"/>
      <point x="423" y="534" type="line"/>
      <point x="289" y="534" type="line"/>
      <point x="289" y="436" type="line"/>
      <point x="265" y="436" type="line"/>
      <point x="258" y="505"/>
      <point x="221" y="544"/>
      <point x="163" y="544" type="curve" smooth="yes"/>
      <point x="74" y="544"/>
      <point x="27" y="453"/>
      <point x="27" y="267" type="curve" smooth="yes"/>
      <point x="27" y="81"/>
      <point x="74" y="-10"/>
    </contour>
    <contour>
      <point x="211" y="92" type="curve" smooth="yes"/>
      <point x="170" y="92"/>
      <point x="152" y="116"/>
      <point x="152" y="171" type="curve" smooth="yes"/>
      <point x="152" y="363" type="line" smooth="yes"/>
      <point x="152" y="418"/>
      <point x="170" y="442"/>
      <point x="211" y="442" type="curve" smooth="yes"/>
      <point x="252" y="442"/>
      <point x="270" y="418"/>
      <point x="270" y="363" type="curve" smooth="yes"/>
      <point x="270" y="171" type="line" smooth="yes"/>
      <point x="270" y="116"/>
      <point x="252" y="92"/>
    </contour>
    <contour>
      <point x="423" y="0" type="move" name="ogonek"/>
    </contour>
    <contour>
      <point x="211" y="534" type="move" name="top"/>
    </contour>
  </outline>
</glyph>
<glyph name="dieresiscomb.narrow" format="1">
  <advance width="0"/>
  <outline>
    <contour>
      <point x="71" y="578" type="line"/>
      <point x="190" y="578" type="line"/>
      <point x="190" y="690" type="line"/>
      <point x="71" y="690" type="line"/>
    </contour>
    <contour>
      <point x="210" y="578" type="line"/>
      <point x="329" y="578" type="line"/>
      <point x="329" y="690" type="line"/>
      <point x="210" y="690" type="line"/>
    </contour>
    <contour>
      <point x="200" y="534" type="move" name="_top"/>
    </contour>
  </outline>
</glyph>
<glyph name="f_f_l" format="1">
  <advance width="750"/>
  <outline>
    <contour>
      <point x="69" y="610" type="curve" smooth="yes"/>
      <point x="69" y="0" type="line"/>
      <point x="186" y="0" type="line"/>
      <point x="186" y="596" type="line"/>
      <point x="259" y="596" type="line"/>
      <point x="259" y="690" type="line"/>
      <point x="149" y="690" type="line" smooth="yes"/>
      <point x="97" y="690"/>
      <point x="69" y="662"/>
    </contour>
    <contour>
      <point x="27" y="0" type="line"/>
      <point x="246" y="0" type="line"/>
      <point x="246" y="94" type="line"/>
      <point x="27" y="94" type="line"/>
    </contour>
    <contour>
      <point x="22" y="440" type="line"/>
      <point x="259" y="440" type="line"/>
      <point x="259" y="534" type="line"/>
      <point x="22" y="534" type="line"/>
    </contour>
    <contour>
      <point x="341" y="610" type="curve" smooth="yes"/>
      <point x="341" y="0" type="line"/>
      <point x="458" y="0" type="line"/>
      <point x="458" y="596" type="line"/>
      <point x="531" y="596" type="line"/>
      <point x="531" y="690" type="line"/>
      <point x="421" y="690" type="line" smooth="yes"/>
      <point x="369" y="690"/>
      <point x="341" y="662"/>
    </contour>
    <contour>
      <point x="299" y="0" type="line"/>
      <point x="518" y="0" type="line"/>
      <point x="518" y="94" type="line"/>
      <point x="299" y="94" type="line"/>
    </contour>
    <contour>
      <point x="294" y="440" type="line"/>
      <point x="531" y="440" type="line"/>
      <point x="531" y="534" type="line"/>
      <point x="294" y="534" type="line"/>
    </contour>
    <contour>
      <point x="209" y="440" type="line"/>
      <point x="356" y="440" type="line"/>
      <point x="356" y="534" type="line"/>
      <point x="209" y="534" type="line"/>
    </contour>
    <contour>
      <point x="589" y="0" type="line"/>
      <point x="707" y="0" type="line"/>
      <point x="707" y="690" type="line"/>
      <point x="553" y="690" type="line"/>
      <point x="553" y="596" type="line"/>
      <point x="589" y="596" type="line"/>
    </contour>
    <contour>
      <point x="502" y="596" type="line"/>
      <point x="576" y="596" type="line"/>
      <point x="576" y="690" type="line"/>
      <point x="502" y="690" type="line"/>
    </contour>
  </outline>
</glyph>
<glyph name="f_h" format="1">
  <advance width="707"/>
  <outline>
    <contour>
      <point x="69" y="610" type="curve" smooth="yes"/>
      <point x="69" y="0" type="line"/>
      <point x="186" y="0" type="line"/>
      <point x="186" y="596" type="line"/>
      <point x="259" y="596" type="line"/>
      <point x="259" y="690" type="line"/>
      <point x="149" y="690" type="line" smooth="yes"/>
      <point x="97" y="690"/>
      <point x="69" y="662"/>
    </contour>
    <contour>
      <point x="27" y="0" type="line"/>
      <point x="246" y="0" type="line"/>
      <point x="246" y="94" type="line"/>
      <point x="27" y="94" type="line"/>
    </contour>
    <contour>
      <point x="22" y="440" type="line"/>
      <point x="259" y="440" type="line"/>
      <point x="259" y="534" type="line"/>
      <point x="22" y="534" type="line"/>
    </contour>
    <contour>
      <point x="316" y="0" type="line"/>
      <point x="433" y="0" type="line"/>
      <point x="433" y="373" type="line" smooth="yes"/>
      <point x="433" y="421"/>
      <point x="450" y="442"/>
      <point x="487" y="442" type="curve" smooth="yes"/>
      <point x="524" y="442"/>
      <point x="541" y="421"/>
      <point x="541" y="373" type="curve" smooth="yes"/>
      <point x="541" y="0" type="line"/>
      <point x="694" y="0" type="line"/>
      <point x="694" y="94" type="line"/>
      <point x="658" y="94" type="line"/>
      <point x="658" y="394" type="line" smooth="yes"/>
      <point x="658" y="492"/>
      <point x="619" y="544"/>
      <point x="543" y="544" type="curve" smooth="yes"/>
      <point x="486" y="544"/>
      <point x="456" y="513"/>
      <point x="447" y="446" type="curve"/>
      <point x="423" y="446" type="line"/>
      <point x="430" y="509"/>
      <point x="433" y="541"/>
      <point x="433" y="572" type="curve" smooth="yes"/>
      <point x="433" y="690" type="line"/>
      <point x="281" y="690" type="line"/>
      <point x="281" y="596" type="line"/>
      <point x="316" y="596" type="line"/>
    </contour>
    <contour>
      <point x="231" y="690" type="line"/>
      <point x="231" y="596" type="line"/>
      <point x="306" y="596" type="line"/>
      <point x="306" y="690" type="line"/>
    </contour>
  </outline>
</glyph>
<glyph name="f_j" format="1">
  <advance width="479"/>
  <outline>
    <contour>
      <point x="69" y="610" type="curve" smooth="yes"/>
      <point x="69" y="0" type="line"/>
      <point x="186" y="0" type="line"/>
      <point x="186" y="596" type="line"/>
      <point x="259" y="596" type="line"/>
      <point x="259" y="690" type="line"/>
      <point x="149" y="690" type="line" smooth="yes"/>
      <point x="97" y="690"/>
      <point x="69" y="662"/>
    </contour>
    <contour>
      <point x="27" y="0" type="line"/>
      <point x="246" y="0" type="line"/>
      <point x="246" y="94" type="line"/>
      <point x="27" y="94" type="line"/>
    </contour>
    <contour>
      <point x="22" y="440" type="line"/>
      <point x="259" y="440" type="line"/>
      <point x="259" y="534" type="line"/>
      <point x="22" y="534" type="line"/>
    </contour>
    <contour>
      <point x="278" y="-132" type="line"/>
      <point x="357" y="-132" type="line" smooth="yes"/>
      <point x="409" y="-132"/>
      <point x="437" y="-104"/>
      <point x="437" y="-52" type="curve" smooth="yes"/>
      <point x="437" y="534" type="line"/>
      <point x="283" y="534" type="line"/>
      <point x="283" y="440" type="line"/>
      <point x="319" y="440" type="line"/>
      <point x="319" y="-38" type="line"/>
      <point x="278" y="-38" type="line"/>
    </contour>
    <contour>
      <point x="314" y="578" type="line"/>
      <point x="438" y="578" type="line"/>
      <point x="438" y="690" type="line"/>
      <point x="314" y="690" type="line"/>
    </contour>
    <contour>
      <point x="228" y="534" type="line"/>
      <point x="228" y="440" type="line"/>
      <point x="311" y="440" type="line"/>
      <point x="311" y="534" type="line"/>
    </contour>
  </outline>
</glyph>
<glyph name="f_thorn" format="1">
  <advance width="705"/>
  <outline>
    <contour>
      <point x="69" y="610" type="curve" smooth="yes"/>
      <point x="69" y="0" type="line"/>
      <point x="186" y="0" type="line"/>
      <point x="186" y="596" type="line"/>
      <point x="259" y="596" type="line"/>
      <point x="259" y="690" type="line"/>
      <point x="149" y="690" type="line" smooth="yes"/>
      <point x="97" y="690"/>
      <point x="69" y="662"/>
    </contour>
    <contour>
      <point x="27" y="0" type="line"/>
      <point x="246" y="0" type="line"/>
      <point x="246" y="94" type="line"/>
      <point x="27" y="94" type="line"/>
    </contour>
    <contour>
      <point x="22" y="440" type="line"/>
      <point x="259" y="440" type="line"/>
      <point x="259" y="534" type="line"/>
      <point x="22" y="534" type="line"/>
    </contour>
    <contour>
      <point x="316" y="-132" type="line"/>
      <point x="433" y="-132" type="line"/>
      <point x="433" y="-34" type="line" smooth="yes"/>
      <point x="433" y="-7"/>
      <point x="430" y="25"/>
      <point x="423" y="88" type="curve"/>
      <point x="447" y="88" type="line"/>
      <point x="456" y="22"/>
      <point x="487" y="-10"/>
      <point x="541" y="-10" type="curve" smooth="yes"/>
      <point x="630" y="-10"/>
      <point x="678" y="81"/>
      <point x="678" y="267" type="curve" smooth="yes"/>
      <point x="678" y="453"/>
      <point x="630" y="544"/>
      <point x="541" y="544" type="curve" smooth="yes"/>
      <point x="487" y="544"/>
      <point x="456" y="512"/>
      <point x="447" y="446" type="curve"/>
      <point x="423" y="446" type="line"/>
      <point x="430" y="509"/>
      <point x="433" y="541"/>
      <point x="433" y="572" type="curve" smooth="yes"/>
      <point x="433" y="690" type="line"/>
      <point x="280" y="690" type="line"/>
      <point x="280" y="596" type="line"/>
      <point x="316" y="596" type="line"/>
    </contour>
    <contour>
      <point x="493" y="92" type="curve" smooth="yes"/>
      <point x="452" y="92"/>
      <point x="433" y="116"/>
      <point x="433" y="171" type="curve" smooth="yes"/>
      <point x="433" y="363" type="line" smooth="yes"/>
      <point x="433" y="418"/>
      <point x="452" y="442"/>
      <point x="493" y="442" type="curve" smooth="yes"/>
      <point x="534" y="442"/>
      <point x="553" y="418"/>
      <point x="553" y="363" type="curve" smooth="yes"/>
      <point x="553" y="171" type="line" smooth="yes"/>
      <point x="553" y="116"/>
      <point x="534" y="92"/>
    </contour>
    <contour>
      <point x="232" y="690" type="line"/>
      <point x="232" y="596" type="line"/>
      <point x="306" y="596" type="line"/>
      <point x="306" y="690" type="line"/>
    </contour>
  </outline>
</glyph>
<glyph name="ringcomb.case" format="1">
  <advance width="0"/>
  <note>
ring
</note>
  <outline>
    <component base="ringcomb" yOffset="116" identifier="37E32156"/>
    <contour>
      <point x="200" y="650" type="move" name="_top"/>
    </contour>
  </outline>
</glyph>
<glyph name="zero.zero" format="1">
  <advance width="468"/>
  <outline>
    <contour>
      <point x="234" y="-10" type="curve" smooth="yes"/>
      <point x="379" y="-10"/>
      <point x="433" y="77"/>
      <point x="433" y="345" type="curve" smooth="yes"/>
      <point x="433" y="613"/>
      <point x="379" y="700"/>
      <point x="234" y="700" type="curve" smooth="yes"/>
      <point x="89" y="700"/>
      <point x="35" y="613"/>
      <point x="35" y="345" type="curve" smooth="yes"/>
      <point x="35" y="77"/>
      <point x="89" y="-10"/>
    </contour>
    <contour>
      <point x="234" y="96" type="curve" smooth="yes"/>
      <point x="185" y="96"/>
      <point x="164" y="123"/>
      <point x="164" y="187" type="curve" smooth="yes"/>
      <point x="164" y="503" type="line" smooth="yes"/>
      <point x="164" y="567"/>
      <point x="185" y="594"/>
      <point x="234" y="594" type="curve" smooth="yes"/>
      <point x="283" y="594"/>
      <point x="304" y="567"/>
      <point x="304" y="503" type="curve" smooth="yes"/>
      <point x="304" y="187" type="line" smooth="yes"/>
      <point x="304" y="123"/>
      <point x="283" y="96"/>
    </contour>
  </outline>
</glyph>
